<svg xmlns="http://www.w3.org/2000/svg" width="34" height="24" viewBox="0 0 34 24" shape-rendering="crispEdges"><rect x="16" y="4" width="6" height="1" fill="#0a0810"></rect><rect x="15" y="5" width="1" height="1" fill="#0a0810"></rect><rect x="16" y="5" width="3" height="1" fill="#14101e"></rect><rect x="19" y="5" width="1" height="1" fill="#211c30"></rect><rect x="20" y="5" width="2" height="1" fill="#14101e"></rect><rect x="22" y="5" width="1" height="1" fill="#0a0810"></rect><rect x="15" y="6" width="1" height="1" fill="#0a0810"></rect><rect x="16" y="6" width="1" height="1" fill="#4a4360"></rect><rect x="17" y="6" width="3" height="1" fill="#322b46"></rect><rect x="20" y="6" width="2" height="1" fill="#211c30"></rect><rect x="22" y="6" width="1" height="1" fill="#0a0810"></rect><rect x="15" y="7" width="1" height="1" fill="#0a0810"></rect><rect x="16" y="7" width="2" height="1" fill="#211c30"></rect><rect x="18" y="7" width="3" height="1" fill="#322b46"></rect><rect x="21" y="7" width="1" height="1" fill="#211c30"></rect><rect x="22" y="7" width="1" height="1" fill="#0a0810"></rect><rect x="15" y="8" width="1" height="1" fill="#0a0810"></rect><rect x="16" y="8" width="1" height="1" fill="#4a4360"></rect><rect x="17" y="8" width="4" height="1" fill="#322b46"></rect><rect x="21" y="8" width="1" height="1" fill="#211c30"></rect><rect x="22" y="8" width="4" height="1" fill="#0a0810"></rect><rect x="15" y="9" width="1" height="1" fill="#0a0810"></rect><rect x="16" y="9" width="1" height="1" fill="#211c30"></rect><rect x="17" y="9" width="1" height="1" fill="#4a4360"></rect><rect x="18" y="9" width="1" height="1" fill="#211c30"></rect><rect x="19" y="9" width="3" height="1" fill="#4a4360"></rect><rect x="22" y="9" width="3" height="1" fill="#14101e"></rect><rect x="25" y="9" width="1" height="1" fill="#211c30"></rect><rect x="26" y="9" width="1" height="1" fill="#0a0810"></rect><rect x="10" y="10" width="6" height="1" fill="#0a0810"></rect><rect x="16" y="10" width="6" height="1" fill="#14101e"></rect><rect x="22" y="10" width="1" height="1" fill="#322b46"></rect><rect x="23" y="10" width="1" height="1" fill="#211c30"></rect><rect x="24" y="10" width="1" height="1" fill="#322b46"></rect><rect x="25" y="10" width="1" height="1" fill="#211c30"></rect><rect x="26" y="10" width="1" height="1" fill="#0a0810"></rect><rect x="9" y="11" width="1" height="1" fill="#0a0810"></rect><rect x="10" y="11" width="1" height="1" fill="#14101e"></rect><rect x="11" y="11" width="1" height="1" fill="#211c30"></rect><rect x="12" y="11" width="5" height="1" fill="#14101e"></rect><rect x="17" y="11" width="1" height="1" fill="#0a0810"></rect><rect x="18" y="11" width="2" height="1" fill="#211c30"></rect><rect x="20" y="11" width="5" height="1" fill="#322b46"></rect><rect x="25" y="11" width="1" height="1" fill="#211c30"></rect><rect x="26" y="11" width="1" height="1" fill="#0a0810"></rect><rect x="9" y="12" width="1" height="1" fill="#0a0810"></rect><rect x="10" y="12" width="1" height="1" fill="#211c30"></rect><rect x="11" y="12" width="2" height="1" fill="#322b46"></rect><rect x="13" y="12" width="1" height="1" fill="#211c30"></rect><rect x="14" y="12" width="2" height="1" fill="#322b46"></rect><rect x="16" y="12" width="1" height="1" fill="#211c30"></rect><rect x="17" y="12" width="1" height="1" fill="#0a0810"></rect><rect x="18" y="12" width="1" height="1" fill="#4a4360"></rect><rect x="19" y="12" width="6" height="1" fill="#322b46"></rect><rect x="25" y="12" width="1" height="1" fill="#211c30"></rect><rect x="26" y="12" width="1" height="1" fill="#0a0810"></rect><rect x="9" y="13" width="1" height="1" fill="#0a0810"></rect><rect x="10" y="13" width="1" height="1" fill="#4a4360"></rect><rect x="11" y="13" width="3" height="1" fill="#322b46"></rect><rect x="14" y="13" width="1" height="1" fill="#211c30"></rect><rect x="15" y="13" width="1" height="1" fill="#322b46"></rect><rect x="16" y="13" width="1" height="1" fill="#211c30"></rect><rect x="17" y="13" width="1" height="1" fill="#0a0810"></rect><rect x="18" y="13" width="1" height="1" fill="#4a4360"></rect><rect x="19" y="13" width="1" height="1" fill="#322b46"></rect><rect x="20" y="13" width="1" height="1" fill="#211c30"></rect><rect x="21" y="13" width="1" height="1" fill="#322b46"></rect><rect x="22" y="13" width="4" height="1" fill="#211c30"></rect><rect x="26" y="13" width="1" height="1" fill="#0a0810"></rect><rect x="9" y="14" width="1" height="1" fill="#0a0810"></rect><rect x="10" y="14" width="1" height="1" fill="#4a4360"></rect><rect x="11" y="14" width="2" height="1" fill="#322b46"></rect><rect x="13" y="14" width="2" height="1" fill="#211c30"></rect><rect x="15" y="14" width="1" height="1" fill="#322b46"></rect><rect x="16" y="14" width="1" height="1" fill="#211c30"></rect><rect x="17" y="14" width="1" height="1" fill="#0a0810"></rect><rect x="18" y="14" width="3" height="1" fill="#4a4360"></rect><rect x="21" y="14" width="1" height="1" fill="#211c30"></rect><rect x="22" y="14" width="2" height="1" fill="#4a4360"></rect><rect x="24" y="14" width="1" height="1" fill="#211c30"></rect><rect x="25" y="14" width="1" height="1" fill="#4a4360"></rect><rect x="26" y="14" width="1" height="1" fill="#0a0810"></rect><rect x="6" y="15" width="4" height="1" fill="#0a0810"></rect><rect x="10" y="15" width="2" height="1" fill="#4a4360"></rect><rect x="12" y="15" width="2" height="1" fill="#211c30"></rect><rect x="14" y="15" width="2" height="1" fill="#4a4360"></rect><rect x="16" y="15" width="1" height="1" fill="#211c30"></rect><rect x="17" y="15" width="9" height="1" fill="#14101e"></rect><rect x="26" y="15" width="1" height="1" fill="#0a0810"></rect><rect x="5" y="16" width="1" height="1" fill="#0a0810"></rect><rect x="6" y="16" width="11" height="1" fill="#14101e"></rect><rect x="17" y="16" width="1" height="1" fill="#211c30"></rect><rect x="18" y="16" width="2" height="1" fill="#322b46"></rect><rect x="20" y="16" width="2" height="1" fill="#211c30"></rect><rect x="22" y="16" width="1" height="1" fill="#322b46"></rect><rect x="23" y="16" width="1" height="1" fill="#211c30"></rect><rect x="24" y="16" width="7" height="1" fill="#0a0810"></rect><rect x="5" y="17" width="1" height="1" fill="#0a0810"></rect><rect x="6" y="17" width="1" height="1" fill="#211c30"></rect><rect x="7" y="17" width="1" height="1" fill="#322b46"></rect><rect x="8" y="17" width="1" height="1" fill="#211c30"></rect><rect x="9" y="17" width="2" height="1" fill="#322b46"></rect><rect x="11" y="17" width="3" height="1" fill="#211c30"></rect><rect x="14" y="17" width="1" height="1" fill="#0a0810"></rect><rect x="15" y="17" width="1" height="1" fill="#4a4360"></rect><rect x="16" y="17" width="5" height="1" fill="#322b46"></rect><rect x="21" y="17" width="1" height="1" fill="#211c30"></rect><rect x="22" y="17" width="1" height="1" fill="#322b46"></rect><rect x="23" y="17" width="1" height="1" fill="#211c30"></rect><rect x="24" y="17" width="7" height="1" fill="#14101e"></rect><rect x="31" y="17" width="1" height="1" fill="#0a0810"></rect><rect x="5" y="18" width="1" height="1" fill="#0a0810"></rect><rect x="6" y="18" width="1" height="1" fill="#4a4360"></rect><rect x="7" y="18" width="2" height="1" fill="#322b46"></rect><rect x="9" y="18" width="2" height="1" fill="#211c30"></rect><rect x="11" y="18" width="2" height="1" fill="#322b46"></rect><rect x="13" y="18" width="1" height="1" fill="#211c30"></rect><rect x="14" y="18" width="1" height="1" fill="#0a0810"></rect><rect x="15" y="18" width="1" height="1" fill="#4a4360"></rect><rect x="16" y="18" width="1" height="1" fill="#211c30"></rect><rect x="17" y="18" width="3" height="1" fill="#322b46"></rect><rect x="20" y="18" width="4" height="1" fill="#211c30"></rect><rect x="24" y="18" width="1" height="1" fill="#4a4360"></rect><rect x="25" y="18" width="4" height="1" fill="#322b46"></rect><rect x="29" y="18" width="2" height="1" fill="#211c30"></rect><rect x="31" y="18" width="1" height="1" fill="#0a0810"></rect><rect x="5" y="19" width="1" height="1" fill="#0a0810"></rect><rect x="6" y="19" width="1" height="1" fill="#4a4360"></rect><rect x="7" y="19" width="1" height="1" fill="#322b46"></rect><rect x="8" y="19" width="1" height="1" fill="#211c30"></rect><rect x="9" y="19" width="4" height="1" fill="#322b46"></rect><rect x="13" y="19" width="1" height="1" fill="#211c30"></rect><rect x="14" y="19" width="1" height="1" fill="#0a0810"></rect><rect x="15" y="19" width="1" height="1" fill="#4a4360"></rect><rect x="16" y="19" width="1" height="1" fill="#322b46"></rect><rect x="17" y="19" width="1" height="1" fill="#211c30"></rect><rect x="18" y="19" width="1" height="1" fill="#322b46"></rect><rect x="19" y="19" width="2" height="1" fill="#211c30"></rect><rect x="21" y="19" width="2" height="1" fill="#322b46"></rect><rect x="23" y="19" width="2" height="1" fill="#211c30"></rect><rect x="25" y="19" width="5" height="1" fill="#322b46"></rect><rect x="30" y="19" width="1" height="1" fill="#211c30"></rect><rect x="31" y="19" width="1" height="1" fill="#0a0810"></rect><rect x="5" y="20" width="1" height="1" fill="#0a0810"></rect><rect x="6" y="20" width="1" height="1" fill="#4a4360"></rect><rect x="7" y="20" width="6" height="1" fill="#322b46"></rect><rect x="13" y="20" width="1" height="1" fill="#211c30"></rect><rect x="14" y="20" width="1" height="1" fill="#0a0810"></rect><rect x="15" y="20" width="1" height="1" fill="#4a4360"></rect><rect x="16" y="20" width="2" height="1" fill="#322b46"></rect><rect x="18" y="20" width="1" height="1" fill="#211c30"></rect><rect x="19" y="20" width="1" height="1" fill="#322b46"></rect><rect x="20" y="20" width="1" height="1" fill="#211c30"></rect><rect x="21" y="20" width="2" height="1" fill="#322b46"></rect><rect x="23" y="20" width="1" height="1" fill="#211c30"></rect><rect x="24" y="20" width="1" height="1" fill="#4a4360"></rect><rect x="25" y="20" width="2" height="1" fill="#322b46"></rect><rect x="27" y="20" width="1" height="1" fill="#211c30"></rect><rect x="28" y="20" width="2" height="1" fill="#322b46"></rect><rect x="30" y="20" width="1" height="1" fill="#211c30"></rect><rect x="31" y="20" width="1" height="1" fill="#0a0810"></rect><rect x="3" y="21" width="1" height="1" fill="#0a0810"></rect><rect x="5" y="21" width="1" height="1" fill="#0a0810"></rect><rect x="6" y="21" width="8" height="1" fill="#4a4360"></rect><rect x="14" y="21" width="1" height="1" fill="#0a0810"></rect><rect x="15" y="21" width="1" height="1" fill="#211c30"></rect><rect x="16" y="21" width="2" height="1" fill="#4a4360"></rect><rect x="18" y="21" width="3" height="1" fill="#211c30"></rect><rect x="21" y="21" width="6" height="1" fill="#4a4360"></rect><rect x="27" y="21" width="2" height="1" fill="#211c30"></rect><rect x="29" y="21" width="2" height="1" fill="#4a4360"></rect><rect x="31" y="21" width="1" height="1" fill="#0a0810"></rect><rect x="2" y="22" width="1" height="1" fill="#0a0810"></rect><rect x="3" y="22" width="1" height="1" fill="#14101e"></rect><rect x="4" y="22" width="2" height="1" fill="#0a0810"></rect><rect x="6" y="22" width="8" height="1" fill="#14101e"></rect><rect x="14" y="22" width="1" height="1" fill="#0a0810"></rect><rect x="15" y="22" width="16" height="1" fill="#14101e"></rect><rect x="31" y="22" width="1" height="1" fill="#0a0810"></rect><rect x="3" y="23" width="1" height="1" fill="#0a0810"></rect><rect x="5" y="23" width="1" height="1" fill="#0a0810"></rect><rect x="6" y="23" width="1" height="1" fill="#14101e"></rect><rect x="7" y="23" width="3" height="1" fill="#0a0810"></rect><rect x="10" y="23" width="1" height="1" fill="#14101e"></rect><rect x="11" y="23" width="2" height="1" fill="#0a0810"></rect><rect x="13" y="23" width="1" height="1" fill="#14101e"></rect><rect x="14" y="23" width="2" height="1" fill="#0a0810"></rect><rect x="16" y="23" width="1" height="1" fill="#14101e"></rect><rect x="17" y="23" width="5" height="1" fill="#0a0810"></rect><rect x="22" y="23" width="1" height="1" fill="#14101e"></rect><rect x="23" y="23" width="8" height="1" fill="#0a0810"></rect></svg>