<svg xmlns="http://www.w3.org/2000/svg" width="44" height="36" viewBox="0 0 44 36" shape-rendering="crispEdges"><rect x="17" y="14" width="4" height="1" fill="#0a0810"></rect><rect x="12" y="15" width="2" height="1" fill="#0a0810"></rect><rect x="16" y="15" width="1" height="1" fill="#0a0810"></rect><rect x="17" y="15" width="1" height="1" fill="#a99fb8"></rect><rect x="18" y="15" width="1" height="1" fill="#6b21a8"></rect><rect x="19" y="15" width="2" height="1" fill="#a99fb8"></rect><rect x="21" y="15" width="1" height="1" fill="#0a0810"></rect><rect x="11" y="16" width="1" height="1" fill="#0a0810"></rect><rect x="12" y="16" width="1" height="1" fill="#d8cfe0"></rect><rect x="13" y="16" width="1" height="1" fill="#a99fb8"></rect><rect x="14" y="16" width="2" height="1" fill="#0a0810"></rect><rect x="16" y="16" width="3" height="1" fill="#6f6781"></rect><rect x="19" y="16" width="1" height="1" fill="#14101e"></rect><rect x="20" y="16" width="2" height="1" fill="#6f6781"></rect><rect x="22" y="16" width="6" height="1" fill="#0a0810"></rect><rect x="9" y="17" width="2" height="1" fill="#0a0810"></rect><rect x="11" y="17" width="1" height="1" fill="#d8cfe0"></rect><rect x="12" y="17" width="7" height="1" fill="#a99fb8"></rect><rect x="19" y="17" width="1" height="1" fill="#6b21a8"></rect><rect x="20" y="17" width="8" height="1" fill="#a99fb8"></rect><rect x="28" y="17" width="16" height="1" fill="#0a0810"></rect><rect x="7" y="18" width="2" height="1" fill="#0a0810"></rect><rect x="9" y="18" width="9" height="1" fill="#211c30"></rect><rect x="18" y="18" width="1" height="1" fill="#14101e"></rect><rect x="19" y="18" width="25" height="1" fill="#211c30"></rect><rect x="5" y="19" width="2" height="1" fill="#0a0810"></rect><rect x="7" y="19" width="3" height="1" fill="#4a4360"></rect><rect x="10" y="19" width="7" height="1" fill="#322b46"></rect><rect x="17" y="19" width="1" height="1" fill="#6b21a8"></rect><rect x="18" y="19" width="26" height="1" fill="#322b46"></rect><rect x="3" y="20" width="2" height="1" fill="#0a0810"></rect><rect x="5" y="20" width="3" height="1" fill="#4a4360"></rect><rect x="8" y="20" width="9" height="1" fill="#322b46"></rect><rect x="17" y="20" width="1" height="1" fill="#14101e"></rect><rect x="18" y="20" width="24" height="1" fill="#322b46"></rect><rect x="42" y="20" width="2" height="1" fill="#14101e"></rect><rect x="2" y="21" width="1" height="1" fill="#0a0810"></rect><rect x="3" y="21" width="3" height="1" fill="#4a4360"></rect><rect x="6" y="21" width="12" height="1" fill="#322b46"></rect><rect x="18" y="21" width="1" height="1" fill="#6b21a8"></rect><rect x="19" y="21" width="21" height="1" fill="#322b46"></rect><rect x="40" y="21" width="2" height="1" fill="#211c30"></rect><rect x="42" y="21" width="2" height="1" fill="#14101e"></rect><rect x="3" y="22" width="1" height="1" fill="#0a0810"></rect><rect x="4" y="22" width="34" height="1" fill="#14101e"></rect><rect x="38" y="22" width="4" height="1" fill="#211c30"></rect><rect x="42" y="22" width="2" height="1" fill="#14101e"></rect><rect x="3" y="23" width="1" height="1" fill="#0a0810"></rect><rect x="4" y="23" width="12" height="1" fill="#14101e"></rect><rect x="16" y="23" width="20" height="1" fill="#322b46"></rect><rect x="36" y="23" width="6" height="1" fill="#211c30"></rect><rect x="42" y="23" width="2" height="1" fill="#14101e"></rect><rect x="3" y="24" width="1" height="1" fill="#0a0810"></rect><rect x="4" y="24" width="2" height="1" fill="#4a4360"></rect><rect x="6" y="24" width="30" height="1" fill="#322b46"></rect><rect x="36" y="24" width="6" height="1" fill="#211c30"></rect><rect x="42" y="24" width="2" height="1" fill="#14101e"></rect><rect x="3" y="25" width="1" height="1" fill="#0a0810"></rect><rect x="4" y="25" width="2" height="1" fill="#4a4360"></rect><rect x="6" y="25" width="30" height="1" fill="#322b46"></rect><rect x="36" y="25" width="6" height="1" fill="#211c30"></rect><rect x="42" y="25" width="2" height="1" fill="#14101e"></rect><rect x="3" y="26" width="1" height="1" fill="#0a0810"></rect><rect x="4" y="26" width="2" height="1" fill="#4a4360"></rect><rect x="6" y="26" width="24" height="1" fill="#322b46"></rect><rect x="30" y="26" width="1" height="1" fill="#7c5f23"></rect><rect x="31" y="26" width="5" height="1" fill="#322b46"></rect><rect x="36" y="26" width="6" height="1" fill="#211c30"></rect><rect x="42" y="26" width="2" height="1" fill="#14101e"></rect><rect x="3" y="27" width="1" height="1" fill="#0a0810"></rect><rect x="4" y="27" width="2" height="1" fill="#4a4360"></rect><rect x="6" y="27" width="24" height="1" fill="#322b46"></rect><rect x="30" y="27" width="1" height="1" fill="#b8943f"></rect><rect x="31" y="27" width="1" height="1" fill="#7c5f23"></rect><rect x="32" y="27" width="4" height="1" fill="#322b46"></rect><rect x="36" y="27" width="6" height="1" fill="#211c30"></rect><rect x="42" y="27" width="2" height="1" fill="#14101e"></rect><rect x="3" y="28" width="1" height="1" fill="#0a0810"></rect><rect x="4" y="28" width="2" height="1" fill="#4a4360"></rect><rect x="6" y="28" width="30" height="1" fill="#322b46"></rect><rect x="36" y="28" width="6" height="1" fill="#211c30"></rect><rect x="42" y="28" width="2" height="1" fill="#14101e"></rect><rect x="3" y="29" width="1" height="1" fill="#0a0810"></rect><rect x="4" y="29" width="2" height="1" fill="#4a4360"></rect><rect x="6" y="29" width="30" height="1" fill="#322b46"></rect><rect x="36" y="29" width="6" height="1" fill="#211c30"></rect><rect x="42" y="29" width="2" height="1" fill="#14101e"></rect><rect x="3" y="30" width="1" height="1" fill="#0a0810"></rect><rect x="4" y="30" width="2" height="1" fill="#4a4360"></rect><rect x="6" y="30" width="30" height="1" fill="#322b46"></rect><rect x="36" y="30" width="6" height="1" fill="#211c30"></rect><rect x="42" y="30" width="2" height="1" fill="#14101e"></rect><rect x="3" y="31" width="1" height="1" fill="#0a0810"></rect><rect x="4" y="31" width="2" height="1" fill="#4a4360"></rect><rect x="6" y="31" width="30" height="1" fill="#322b46"></rect><rect x="36" y="31" width="6" height="1" fill="#211c30"></rect><rect x="42" y="31" width="1" height="1" fill="#14101e"></rect><rect x="43" y="31" width="1" height="1" fill="#0a0810"></rect><rect x="3" y="32" width="1" height="1" fill="#0a0810"></rect><rect x="4" y="32" width="1" height="1" fill="#7c5f23"></rect><rect x="5" y="32" width="1" height="1" fill="#4a4360"></rect><rect x="6" y="32" width="1" height="1" fill="#7c5f23"></rect><rect x="7" y="32" width="1" height="1" fill="#322b46"></rect><rect x="8" y="32" width="1" height="1" fill="#7c5f23"></rect><rect x="9" y="32" width="1" height="1" fill="#322b46"></rect><rect x="10" y="32" width="1" height="1" fill="#7c5f23"></rect><rect x="11" y="32" width="1" height="1" fill="#322b46"></rect><rect x="12" y="32" width="1" height="1" fill="#7c5f23"></rect><rect x="13" y="32" width="1" height="1" fill="#322b46"></rect><rect x="14" y="32" width="1" height="1" fill="#7c5f23"></rect><rect x="15" y="32" width="1" height="1" fill="#322b46"></rect><rect x="16" y="32" width="1" height="1" fill="#7c5f23"></rect><rect x="17" y="32" width="1" height="1" fill="#322b46"></rect><rect x="18" y="32" width="1" height="1" fill="#7c5f23"></rect><rect x="19" y="32" width="1" height="1" fill="#322b46"></rect><rect x="20" y="32" width="1" height="1" fill="#7c5f23"></rect><rect x="21" y="32" width="1" height="1" fill="#322b46"></rect><rect x="22" y="32" width="1" height="1" fill="#7c5f23"></rect><rect x="23" y="32" width="1" height="1" fill="#322b46"></rect><rect x="24" y="32" width="1" height="1" fill="#7c5f23"></rect><rect x="25" y="32" width="1" height="1" fill="#322b46"></rect><rect x="26" y="32" width="1" height="1" fill="#7c5f23"></rect><rect x="27" y="32" width="1" height="1" fill="#322b46"></rect><rect x="28" y="32" width="1" height="1" fill="#7c5f23"></rect><rect x="29" y="32" width="1" height="1" fill="#322b46"></rect><rect x="30" y="32" width="1" height="1" fill="#7c5f23"></rect><rect x="31" y="32" width="1" height="1" fill="#322b46"></rect><rect x="32" y="32" width="1" height="1" fill="#7c5f23"></rect><rect x="33" y="32" width="1" height="1" fill="#322b46"></rect><rect x="34" y="32" width="1" height="1" fill="#7c5f23"></rect><rect x="35" y="32" width="1" height="1" fill="#322b46"></rect><rect x="36" y="32" width="1" height="1" fill="#7c5f23"></rect><rect x="37" y="32" width="4" height="1" fill="#211c30"></rect><rect x="41" y="32" width="2" height="1" fill="#0a0810"></rect><rect x="3" y="33" width="1" height="1" fill="#0a0810"></rect><rect x="4" y="33" width="2" height="1" fill="#4a4360"></rect><rect x="6" y="33" width="10" height="1" fill="#322b46"></rect><rect x="16" y="33" width="22" height="1" fill="#0a0810"></rect><rect x="38" y="33" width="1" height="1" fill="#211c30"></rect><rect x="39" y="33" width="2" height="1" fill="#0a0810"></rect><rect x="4" y="34" width="12" height="1" fill="#0a0810"></rect><rect x="38" y="34" width="1" height="1" fill="#0a0810"></rect></svg>