<svg xmlns="http://www.w3.org/2000/svg" width="70" height="14" viewBox="0 0 70 14" shape-rendering="crispEdges"><rect x="9" y="2" width="1" height="1" fill="#0a0810"></rect><rect x="11" y="2" width="1" height="1" fill="#0a0810"></rect><rect x="8" y="3" width="1" height="1" fill="#0a0810"></rect><rect x="9" y="3" width="1" height="1" fill="#a99fb8"></rect><rect x="10" y="3" width="1" height="1" fill="#0a0810"></rect><rect x="11" y="3" width="1" height="1" fill="#a99fb8"></rect><rect x="12" y="3" width="1" height="1" fill="#0a0810"></rect><rect x="6" y="4" width="1" height="1" fill="#0a0810"></rect><rect x="8" y="4" width="1" height="1" fill="#0a0810"></rect><rect x="9" y="4" width="1" height="1" fill="#a99fb8"></rect><rect x="10" y="4" width="1" height="1" fill="#0a0810"></rect><rect x="11" y="4" width="1" height="1" fill="#d8cfe0"></rect><rect x="12" y="4" width="1" height="1" fill="#0a0810"></rect><rect x="4" y="5" width="2" height="1" fill="#0a0810"></rect><rect x="6" y="5" width="1" height="1" fill="#a99fb8"></rect><rect x="7" y="5" width="2" height="1" fill="#0a0810"></rect><rect x="9" y="5" width="1" height="1" fill="#d8cfe0"></rect><rect x="10" y="5" width="1" height="1" fill="#a99fb8"></rect><rect x="11" y="5" width="1" height="1" fill="#efe9f4"></rect><rect x="12" y="5" width="1" height="1" fill="#0a0810"></rect><rect x="3" y="6" width="1" height="1" fill="#0a0810"></rect><rect x="4" y="6" width="1" height="1" fill="#a99fb8"></rect><rect x="5" y="6" width="3" height="1" fill="#efe9f4"></rect><rect x="8" y="6" width="1" height="1" fill="#a99fb8"></rect><rect x="9" y="6" width="1" height="1" fill="#efe9f4"></rect><rect x="10" y="6" width="2" height="1" fill="#d8cfe0"></rect><rect x="12" y="6" width="1" height="1" fill="#0a0810"></rect><rect x="2" y="7" width="1" height="1" fill="#0a0810"></rect><rect x="3" y="7" width="1" height="1" fill="#a99fb8"></rect><rect x="4" y="7" width="4" height="1" fill="#efe9f4"></rect><rect x="8" y="7" width="1" height="1" fill="#a99fb8"></rect><rect x="9" y="7" width="1" height="1" fill="#efe9f4"></rect><rect x="10" y="7" width="2" height="1" fill="#d8cfe0"></rect><rect x="12" y="7" width="2" height="1" fill="#0a0810"></rect><rect x="1" y="8" width="1" height="1" fill="#0a0810"></rect><rect x="2" y="8" width="1" height="1" fill="#efe9f4"></rect><rect x="3" y="8" width="6" height="1" fill="#d8cfe0"></rect><rect x="9" y="8" width="1" height="1" fill="#efe9f4"></rect><rect x="10" y="8" width="2" height="1" fill="#d8cfe0"></rect><rect x="12" y="8" width="1" height="1" fill="#36291c"></rect><rect x="13" y="8" width="1" height="1" fill="#0a0810"></rect><rect x="1" y="9" width="1" height="1" fill="#0a0810"></rect><rect x="2" y="9" width="8" height="1" fill="#d8cfe0"></rect><rect x="10" y="9" width="1" height="1" fill="#a99fb8"></rect><rect x="11" y="9" width="2" height="1" fill="#0a0810"></rect><rect x="2" y="10" width="1" height="1" fill="#0a0810"></rect><rect x="3" y="10" width="7" height="1" fill="#d8cfe0"></rect><rect x="10" y="10" width="1" height="1" fill="#0a0810"></rect><rect x="2" y="11" width="1" height="1" fill="#0a0810"></rect><rect x="3" y="11" width="1" height="1" fill="#a99fb8"></rect><rect x="4" y="11" width="5" height="1" fill="#d8cfe0"></rect><rect x="9" y="11" width="1" height="1" fill="#a99fb8"></rect><rect x="10" y="11" width="1" height="1" fill="#0a0810"></rect><rect x="3" y="12" width="1" height="1" fill="#0a0810"></rect><rect x="4" y="12" width="1" height="1" fill="#a99fb8"></rect><rect x="5" y="12" width="3" height="1" fill="#d8cfe0"></rect><rect x="8" y="12" width="1" height="1" fill="#a99fb8"></rect><rect x="9" y="12" width="1" height="1" fill="#0a0810"></rect><rect x="10" y="12" width="1" height="1" fill="#0a0810" fill-opacity="0.45"></rect><rect x="11" y="12" width="1" height="1" fill="#0a0810"></rect><rect x="2" y="13" width="1" height="1" fill="#0a0810"></rect><rect x="3" y="13" width="1" height="1" fill="#0a0810" fill-opacity="0.45"></rect><rect x="4" y="13" width="1" height="1" fill="#241a11"></rect><rect x="5" y="13" width="1" height="1" fill="#0a0810" fill-opacity="0.45"></rect><rect x="6" y="13" width="1" height="1" fill="#a99fb8"></rect><rect x="7" y="13" width="5" height="1" fill="#0a0810" fill-opacity="0.45"></rect><rect x="12" y="13" width="1" height="1" fill="#0a0810"></rect><rect x="23" y="1" width="1" height="1" fill="#0a0810"></rect><rect x="22" y="2" width="1" height="1" fill="#0a0810"></rect><rect x="23" y="2" width="1" height="1" fill="#a99fb8"></rect><rect x="24" y="2" width="2" height="1" fill="#0a0810"></rect><rect x="22" y="3" width="1" height="1" fill="#0a0810"></rect><rect x="23" y="3" width="1" height="1" fill="#a99fb8"></rect><rect x="24" y="3" width="1" height="1" fill="#0a0810"></rect><rect x="25" y="3" width="1" height="1" fill="#a99fb8"></rect><rect x="26" y="3" width="1" height="1" fill="#0a0810"></rect><rect x="20" y="4" width="1" height="1" fill="#0a0810"></rect><rect x="22" y="4" width="1" height="1" fill="#0a0810"></rect><rect x="23" y="4" width="1" height="1" fill="#d8cfe0"></rect><rect x="24" y="4" width="1" height="1" fill="#0a0810"></rect><rect x="25" y="4" width="1" height="1" fill="#d8cfe0"></rect><rect x="26" y="4" width="1" height="1" fill="#0a0810"></rect><rect x="18" y="5" width="2" height="1" fill="#0a0810"></rect><rect x="20" y="5" width="1" height="1" fill="#a99fb8"></rect><rect x="21" y="5" width="3" height="1" fill="#0a0810"></rect><rect x="24" y="5" width="1" height="1" fill="#a99fb8"></rect><rect x="25" y="5" width="1" height="1" fill="#efe9f4"></rect><rect x="26" y="5" width="1" height="1" fill="#0a0810"></rect><rect x="17" y="6" width="1" height="1" fill="#0a0810"></rect><rect x="18" y="6" width="1" height="1" fill="#a99fb8"></rect><rect x="19" y="6" width="3" height="1" fill="#efe9f4"></rect><rect x="22" y="6" width="1" height="1" fill="#a99fb8"></rect><rect x="23" y="6" width="1" height="1" fill="#efe9f4"></rect><rect x="24" y="6" width="2" height="1" fill="#d8cfe0"></rect><rect x="26" y="6" width="1" height="1" fill="#0a0810"></rect><rect x="16" y="7" width="1" height="1" fill="#0a0810"></rect><rect x="17" y="7" width="1" height="1" fill="#a99fb8"></rect><rect x="18" y="7" width="4" height="1" fill="#efe9f4"></rect><rect x="22" y="7" width="1" height="1" fill="#a99fb8"></rect><rect x="23" y="7" width="1" height="1" fill="#efe9f4"></rect><rect x="24" y="7" width="2" height="1" fill="#d8cfe0"></rect><rect x="26" y="7" width="2" height="1" fill="#0a0810"></rect><rect x="15" y="8" width="1" height="1" fill="#0a0810"></rect><rect x="16" y="8" width="1" height="1" fill="#efe9f4"></rect><rect x="17" y="8" width="6" height="1" fill="#d8cfe0"></rect><rect x="23" y="8" width="1" height="1" fill="#efe9f4"></rect><rect x="24" y="8" width="2" height="1" fill="#d8cfe0"></rect><rect x="26" y="8" width="1" height="1" fill="#36291c"></rect><rect x="27" y="8" width="1" height="1" fill="#0a0810"></rect><rect x="15" y="9" width="1" height="1" fill="#0a0810"></rect><rect x="16" y="9" width="8" height="1" fill="#d8cfe0"></rect><rect x="24" y="9" width="1" height="1" fill="#a99fb8"></rect><rect x="25" y="9" width="2" height="1" fill="#0a0810"></rect><rect x="16" y="10" width="1" height="1" fill="#0a0810"></rect><rect x="17" y="10" width="7" height="1" fill="#d8cfe0"></rect><rect x="24" y="10" width="1" height="1" fill="#0a0810"></rect><rect x="16" y="11" width="1" height="1" fill="#0a0810"></rect><rect x="17" y="11" width="1" height="1" fill="#a99fb8"></rect><rect x="18" y="11" width="5" height="1" fill="#d8cfe0"></rect><rect x="23" y="11" width="1" height="1" fill="#a99fb8"></rect><rect x="24" y="11" width="1" height="1" fill="#0a0810"></rect><rect x="17" y="12" width="1" height="1" fill="#0a0810"></rect><rect x="18" y="12" width="1" height="1" fill="#a99fb8"></rect><rect x="19" y="12" width="3" height="1" fill="#d8cfe0"></rect><rect x="22" y="12" width="1" height="1" fill="#a99fb8"></rect><rect x="23" y="12" width="1" height="1" fill="#0a0810"></rect><rect x="24" y="12" width="1" height="1" fill="#0a0810" fill-opacity="0.45"></rect><rect x="25" y="12" width="1" height="1" fill="#0a0810"></rect><rect x="16" y="13" width="1" height="1" fill="#0a0810"></rect><rect x="17" y="13" width="1" height="1" fill="#0a0810" fill-opacity="0.45"></rect><rect x="18" y="13" width="1" height="1" fill="#241a11"></rect><rect x="19" y="13" width="1" height="1" fill="#0a0810" fill-opacity="0.45"></rect><rect x="20" y="13" width="1" height="1" fill="#a99fb8"></rect><rect x="21" y="13" width="5" height="1" fill="#0a0810" fill-opacity="0.45"></rect><rect x="26" y="13" width="1" height="1" fill="#0a0810"></rect><rect x="37" y="2" width="1" height="1" fill="#0a0810"></rect><rect x="39" y="2" width="1" height="1" fill="#0a0810"></rect><rect x="36" y="3" width="1" height="1" fill="#0a0810"></rect><rect x="37" y="3" width="1" height="1" fill="#a99fb8"></rect><rect x="38" y="3" width="1" height="1" fill="#0a0810"></rect><rect x="39" y="3" width="1" height="1" fill="#a99fb8"></rect><rect x="40" y="3" width="1" height="1" fill="#0a0810"></rect><rect x="34" y="4" width="1" height="1" fill="#0a0810"></rect><rect x="36" y="4" width="1" height="1" fill="#0a0810"></rect><rect x="37" y="4" width="1" height="1" fill="#a99fb8"></rect><rect x="38" y="4" width="1" height="1" fill="#0a0810"></rect><rect x="39" y="4" width="1" height="1" fill="#d8cfe0"></rect><rect x="40" y="4" width="1" height="1" fill="#0a0810"></rect><rect x="32" y="5" width="2" height="1" fill="#0a0810"></rect><rect x="34" y="5" width="1" height="1" fill="#a99fb8"></rect><rect x="35" y="5" width="2" height="1" fill="#0a0810"></rect><rect x="37" y="5" width="1" height="1" fill="#d8cfe0"></rect><rect x="38" y="5" width="1" height="1" fill="#a99fb8"></rect><rect x="39" y="5" width="1" height="1" fill="#efe9f4"></rect><rect x="40" y="5" width="1" height="1" fill="#0a0810"></rect><rect x="31" y="6" width="1" height="1" fill="#0a0810"></rect><rect x="32" y="6" width="1" height="1" fill="#a99fb8"></rect><rect x="33" y="6" width="3" height="1" fill="#efe9f4"></rect><rect x="36" y="6" width="1" height="1" fill="#a99fb8"></rect><rect x="37" y="6" width="1" height="1" fill="#efe9f4"></rect><rect x="38" y="6" width="2" height="1" fill="#d8cfe0"></rect><rect x="40" y="6" width="1" height="1" fill="#0a0810"></rect><rect x="30" y="7" width="1" height="1" fill="#0a0810"></rect><rect x="31" y="7" width="1" height="1" fill="#a99fb8"></rect><rect x="32" y="7" width="4" height="1" fill="#efe9f4"></rect><rect x="36" y="7" width="1" height="1" fill="#a99fb8"></rect><rect x="37" y="7" width="1" height="1" fill="#efe9f4"></rect><rect x="38" y="7" width="2" height="1" fill="#d8cfe0"></rect><rect x="40" y="7" width="2" height="1" fill="#0a0810"></rect><rect x="29" y="8" width="1" height="1" fill="#0a0810"></rect><rect x="30" y="8" width="1" height="1" fill="#efe9f4"></rect><rect x="31" y="8" width="6" height="1" fill="#d8cfe0"></rect><rect x="37" y="8" width="1" height="1" fill="#efe9f4"></rect><rect x="38" y="8" width="2" height="1" fill="#d8cfe0"></rect><rect x="40" y="8" width="1" height="1" fill="#36291c"></rect><rect x="41" y="8" width="1" height="1" fill="#0a0810"></rect><rect x="29" y="9" width="1" height="1" fill="#0a0810"></rect><rect x="30" y="9" width="8" height="1" fill="#d8cfe0"></rect><rect x="38" y="9" width="1" height="1" fill="#a99fb8"></rect><rect x="39" y="9" width="2" height="1" fill="#0a0810"></rect><rect x="30" y="10" width="1" height="1" fill="#0a0810"></rect><rect x="31" y="10" width="7" height="1" fill="#d8cfe0"></rect><rect x="38" y="10" width="1" height="1" fill="#0a0810"></rect><rect x="30" y="11" width="1" height="1" fill="#0a0810"></rect><rect x="31" y="11" width="1" height="1" fill="#a99fb8"></rect><rect x="32" y="11" width="5" height="1" fill="#d8cfe0"></rect><rect x="37" y="11" width="1" height="1" fill="#a99fb8"></rect><rect x="38" y="11" width="1" height="1" fill="#0a0810"></rect><rect x="31" y="12" width="1" height="1" fill="#0a0810"></rect><rect x="32" y="12" width="1" height="1" fill="#a99fb8"></rect><rect x="33" y="12" width="3" height="1" fill="#d8cfe0"></rect><rect x="36" y="12" width="1" height="1" fill="#a99fb8"></rect><rect x="37" y="12" width="1" height="1" fill="#0a0810"></rect><rect x="38" y="12" width="1" height="1" fill="#0a0810" fill-opacity="0.45"></rect><rect x="39" y="12" width="1" height="1" fill="#0a0810"></rect><rect x="30" y="13" width="1" height="1" fill="#0a0810"></rect><rect x="31" y="13" width="1" height="1" fill="#0a0810" fill-opacity="0.45"></rect><rect x="32" y="13" width="1" height="1" fill="#241a11"></rect><rect x="33" y="13" width="1" height="1" fill="#0a0810" fill-opacity="0.45"></rect><rect x="34" y="13" width="1" height="1" fill="#a99fb8"></rect><rect x="35" y="13" width="5" height="1" fill="#0a0810" fill-opacity="0.45"></rect><rect x="40" y="13" width="1" height="1" fill="#0a0810"></rect><rect x="51" y="0" width="1" height="1" fill="#0a0810"></rect><rect x="52" y="0" width="1" height="1" fill="#a99fb8"></rect><rect x="53" y="0" width="1" height="1" fill="#0a0810"></rect><rect x="54" y="0" width="1" height="1" fill="#a99fb8"></rect><rect x="55" y="0" width="1" height="1" fill="#0a0810"></rect><rect x="51" y="1" width="1" height="1" fill="#0a0810"></rect><rect x="52" y="1" width="1" height="1" fill="#a99fb8"></rect><rect x="53" y="1" width="1" height="1" fill="#0a0810"></rect><rect x="54" y="1" width="1" height="1" fill="#d8cfe0"></rect><rect x="55" y="1" width="1" height="1" fill="#0a0810"></rect><rect x="48" y="2" width="1" height="1" fill="#0a0810"></rect><rect x="51" y="2" width="1" height="1" fill="#0a0810"></rect><rect x="52" y="2" width="1" height="1" fill="#d8cfe0"></rect><rect x="53" y="2" width="1" height="1" fill="#a99fb8"></rect><rect x="54" y="2" width="1" height="1" fill="#efe9f4"></rect><rect x="55" y="2" width="1" height="1" fill="#0a0810"></rect><rect x="45" y="3" width="3" height="1" fill="#0a0810"></rect><rect x="48" y="3" width="1" height="1" fill="#a99fb8"></rect><rect x="49" y="3" width="3" height="1" fill="#0a0810"></rect><rect x="52" y="3" width="1" height="1" fill="#efe9f4"></rect><rect x="53" y="3" width="2" height="1" fill="#d8cfe0"></rect><rect x="55" y="3" width="1" height="1" fill="#0a0810"></rect><rect x="44" y="4" width="1" height="1" fill="#0a0810"></rect><rect x="45" y="4" width="1" height="1" fill="#a99fb8"></rect><rect x="46" y="4" width="5" height="1" fill="#efe9f4"></rect><rect x="51" y="4" width="1" height="1" fill="#a99fb8"></rect><rect x="52" y="4" width="1" height="1" fill="#efe9f4"></rect><rect x="53" y="4" width="2" height="1" fill="#d8cfe0"></rect><rect x="55" y="4" width="1" height="1" fill="#0a0810"></rect><rect x="43" y="5" width="1" height="1" fill="#0a0810"></rect><rect x="44" y="5" width="9" height="1" fill="#efe9f4"></rect><rect x="53" y="5" width="2" height="1" fill="#d8cfe0"></rect><rect x="55" y="5" width="1" height="1" fill="#36291c"></rect><rect x="42" y="6" width="1" height="1" fill="#0a0810"></rect><rect x="43" y="6" width="1" height="1" fill="#a99fb8"></rect><rect x="44" y="6" width="9" height="1" fill="#d8cfe0"></rect><rect x="53" y="6" width="1" height="1" fill="#a99fb8"></rect><rect x="54" y="6" width="2" height="1" fill="#0a0810"></rect><rect x="43" y="7" width="1" height="1" fill="#0a0810"></rect><rect x="44" y="7" width="1" height="1" fill="#a99fb8"></rect><rect x="45" y="7" width="7" height="1" fill="#d8cfe0"></rect><rect x="52" y="7" width="1" height="1" fill="#a99fb8"></rect><rect x="53" y="7" width="1" height="1" fill="#0a0810"></rect><rect x="44" y="8" width="1" height="1" fill="#0a0810"></rect><rect x="45" y="8" width="1" height="1" fill="#a99fb8"></rect><rect x="46" y="8" width="5" height="1" fill="#d8cfe0"></rect><rect x="51" y="8" width="1" height="1" fill="#a99fb8"></rect><rect x="52" y="8" width="1" height="1" fill="#0a0810"></rect><rect x="45" y="9" width="3" height="1" fill="#0a0810"></rect><rect x="48" y="9" width="1" height="1" fill="#a99fb8"></rect><rect x="49" y="9" width="3" height="1" fill="#0a0810"></rect><rect x="48" y="10" width="1" height="1" fill="#0a0810"></rect><rect x="47" y="12" width="9" height="1" fill="#0a0810"></rect><rect x="46" y="13" width="1" height="1" fill="#0a0810"></rect><rect x="47" y="13" width="9" height="1" fill="#0a0810" fill-opacity="0.45"></rect><rect x="65" y="2" width="1" height="1" fill="#0a0810"></rect><rect x="67" y="2" width="1" height="1" fill="#0a0810"></rect><rect x="64" y="3" width="1" height="1" fill="#0a0810"></rect><rect x="65" y="3" width="1" height="1" fill="#a99fb8"></rect><rect x="66" y="3" width="1" height="1" fill="#0a0810"></rect><rect x="67" y="3" width="1" height="1" fill="#a99fb8"></rect><rect x="68" y="3" width="1" height="1" fill="#0a0810"></rect><rect x="62" y="4" width="1" height="1" fill="#0a0810"></rect><rect x="64" y="4" width="1" height="1" fill="#0a0810"></rect><rect x="65" y="4" width="1" height="1" fill="#a99fb8"></rect><rect x="66" y="4" width="1" height="1" fill="#0a0810"></rect><rect x="67" y="4" width="1" height="1" fill="#d8cfe0"></rect><rect x="68" y="4" width="1" height="1" fill="#0a0810"></rect><rect x="60" y="5" width="2" height="1" fill="#0a0810"></rect><rect x="62" y="5" width="1" height="1" fill="#a99fb8"></rect><rect x="63" y="5" width="2" height="1" fill="#0a0810"></rect><rect x="65" y="5" width="1" height="1" fill="#d8cfe0"></rect><rect x="66" y="5" width="1" height="1" fill="#a99fb8"></rect><rect x="67" y="5" width="1" height="1" fill="#efe9f4"></rect><rect x="68" y="5" width="1" height="1" fill="#0a0810"></rect><rect x="59" y="6" width="1" height="1" fill="#0a0810"></rect><rect x="60" y="6" width="1" height="1" fill="#a99fb8"></rect><rect x="61" y="6" width="3" height="1" fill="#efe9f4"></rect><rect x="64" y="6" width="1" height="1" fill="#a99fb8"></rect><rect x="65" y="6" width="1" height="1" fill="#efe9f4"></rect><rect x="66" y="6" width="2" height="1" fill="#d8cfe0"></rect><rect x="68" y="6" width="1" height="1" fill="#0a0810"></rect><rect x="58" y="7" width="1" height="1" fill="#0a0810"></rect><rect x="59" y="7" width="1" height="1" fill="#a99fb8"></rect><rect x="60" y="7" width="4" height="1" fill="#efe9f4"></rect><rect x="64" y="7" width="1" height="1" fill="#a99fb8"></rect><rect x="65" y="7" width="1" height="1" fill="#efe9f4"></rect><rect x="66" y="7" width="2" height="1" fill="#d8cfe0"></rect><rect x="68" y="7" width="2" height="1" fill="#0a0810"></rect><rect x="57" y="8" width="1" height="1" fill="#0a0810"></rect><rect x="58" y="8" width="1" height="1" fill="#efe9f4"></rect><rect x="59" y="8" width="6" height="1" fill="#d8cfe0"></rect><rect x="65" y="8" width="1" height="1" fill="#efe9f4"></rect><rect x="66" y="8" width="2" height="1" fill="#d8cfe0"></rect><rect x="68" y="8" width="1" height="1" fill="#36291c"></rect><rect x="69" y="8" width="1" height="1" fill="#0a0810"></rect><rect x="57" y="9" width="1" height="1" fill="#0a0810"></rect><rect x="58" y="9" width="8" height="1" fill="#d8cfe0"></rect><rect x="66" y="9" width="1" height="1" fill="#a99fb8"></rect><rect x="67" y="9" width="2" height="1" fill="#0a0810"></rect><rect x="58" y="10" width="1" height="1" fill="#0a0810"></rect><rect x="59" y="10" width="7" height="1" fill="#d8cfe0"></rect><rect x="66" y="10" width="1" height="1" fill="#0a0810"></rect><rect x="58" y="11" width="1" height="1" fill="#0a0810"></rect><rect x="59" y="11" width="1" height="1" fill="#a99fb8"></rect><rect x="60" y="11" width="5" height="1" fill="#d8cfe0"></rect><rect x="65" y="11" width="1" height="1" fill="#a99fb8"></rect><rect x="66" y="11" width="1" height="1" fill="#0a0810"></rect><rect x="59" y="12" width="1" height="1" fill="#0a0810"></rect><rect x="60" y="12" width="1" height="1" fill="#a99fb8"></rect><rect x="61" y="12" width="3" height="1" fill="#d8cfe0"></rect><rect x="64" y="12" width="1" height="1" fill="#a99fb8"></rect><rect x="65" y="12" width="1" height="1" fill="#0a0810"></rect><rect x="66" y="12" width="1" height="1" fill="#0a0810" fill-opacity="0.45"></rect><rect x="67" y="12" width="1" height="1" fill="#0a0810"></rect><rect x="58" y="13" width="1" height="1" fill="#0a0810"></rect><rect x="59" y="13" width="1" height="1" fill="#0a0810" fill-opacity="0.45"></rect><rect x="60" y="13" width="1" height="1" fill="#241a11"></rect><rect x="61" y="13" width="1" height="1" fill="#0a0810" fill-opacity="0.45"></rect><rect x="62" y="13" width="1" height="1" fill="#a99fb8"></rect><rect x="63" y="13" width="5" height="1" fill="#0a0810" fill-opacity="0.45"></rect><rect x="68" y="13" width="1" height="1" fill="#0a0810"></rect></svg>