<svg xmlns="http://www.w3.org/2000/svg" width="30" height="10" viewBox="0 0 30 10" shape-rendering="crispEdges"><rect x="7" y="2" width="2" height="1" fill="#0a0810"></rect><rect x="4" y="3" width="3" height="1" fill="#0a0810"></rect><rect x="7" y="3" width="2" height="1" fill="#6b21a8"></rect><rect x="9" y="3" width="1" height="1" fill="#0a0810"></rect><rect x="1" y="4" width="3" height="1" fill="#0a0810"></rect><rect x="4" y="4" width="3" height="1" fill="#6b21a8"></rect><rect x="7" y="4" width="1" height="1" fill="#d8b4fe"></rect><rect x="8" y="4" width="1" height="1" fill="#f3e8ff"></rect><rect x="9" y="4" width="1" height="1" fill="#0a0810"></rect><rect x="0" y="5" width="1" height="1" fill="#0a0810"></rect><rect x="1" y="5" width="1" height="1" fill="#6b21a8"></rect><rect x="2" y="5" width="4" height="1" fill="#a855f7"></rect><rect x="6" y="5" width="2" height="1" fill="#d8b4fe"></rect><rect x="8" y="5" width="1" height="1" fill="#f3e8ff"></rect><rect x="9" y="5" width="1" height="1" fill="#0a0810"></rect><rect x="1" y="6" width="1" height="1" fill="#0a0810"></rect><rect x="2" y="6" width="1" height="1" fill="#6b21a8"></rect><rect x="3" y="6" width="1" height="1" fill="#0a0810"></rect><rect x="4" y="6" width="3" height="1" fill="#6b21a8"></rect><rect x="7" y="6" width="1" height="1" fill="#d8b4fe"></rect><rect x="8" y="6" width="1" height="1" fill="#f3e8ff"></rect><rect x="9" y="6" width="1" height="1" fill="#0a0810"></rect><rect x="2" y="7" width="1" height="1" fill="#0a0810"></rect><rect x="4" y="7" width="3" height="1" fill="#0a0810"></rect><rect x="7" y="7" width="2" height="1" fill="#6b21a8"></rect><rect x="9" y="7" width="1" height="1" fill="#0a0810"></rect><rect x="7" y="8" width="2" height="1" fill="#0a0810"></rect><rect x="15" y="1" width="1" height="1" fill="#0a0810"></rect><rect x="14" y="2" width="1" height="1" fill="#0a0810"></rect><rect x="15" y="2" width="1" height="1" fill="#f3e8ff"></rect><rect x="16" y="2" width="3" height="1" fill="#0a0810"></rect><rect x="12" y="3" width="1" height="1" fill="#0a0810"></rect><rect x="14" y="3" width="3" height="1" fill="#0a0810"></rect><rect x="17" y="3" width="2" height="1" fill="#6b21a8"></rect><rect x="19" y="3" width="1" height="1" fill="#0a0810"></rect><rect x="10" y="4" width="2" height="1" fill="#0a0810"></rect><rect x="12" y="4" width="1" height="1" fill="#6b21a8"></rect><rect x="13" y="4" width="1" height="1" fill="#0a0810"></rect><rect x="14" y="4" width="3" height="1" fill="#6b21a8"></rect><rect x="17" y="4" width="1" height="1" fill="#d8b4fe"></rect><rect x="18" y="4" width="1" height="1" fill="#f3e8ff"></rect><rect x="19" y="4" width="1" height="1" fill="#0a0810"></rect><rect x="10" y="5" width="1" height="1" fill="#6b21a8"></rect><rect x="11" y="5" width="1" height="1" fill="#0a0810"></rect><rect x="12" y="5" width="4" height="1" fill="#a855f7"></rect><rect x="16" y="5" width="2" height="1" fill="#d8b4fe"></rect><rect x="18" y="5" width="1" height="1" fill="#f3e8ff"></rect><rect x="19" y="5" width="1" height="1" fill="#0a0810"></rect><rect x="10" y="6" width="1" height="1" fill="#0a0810"></rect><rect x="12" y="6" width="2" height="1" fill="#0a0810"></rect><rect x="14" y="6" width="3" height="1" fill="#6b21a8"></rect><rect x="17" y="6" width="1" height="1" fill="#d8b4fe"></rect><rect x="18" y="6" width="1" height="1" fill="#f3e8ff"></rect><rect x="19" y="6" width="1" height="1" fill="#0a0810"></rect><rect x="14" y="7" width="3" height="1" fill="#0a0810"></rect><rect x="17" y="7" width="2" height="1" fill="#6b21a8"></rect><rect x="19" y="7" width="1" height="1" fill="#0a0810"></rect><rect x="15" y="8" width="1" height="1" fill="#0a0810"></rect><rect x="16" y="8" width="1" height="1" fill="#d8b4fe"></rect><rect x="17" y="8" width="2" height="1" fill="#0a0810"></rect><rect x="16" y="9" width="1" height="1" fill="#0a0810"></rect><rect x="27" y="2" width="2" height="1" fill="#0a0810"></rect><rect x="24" y="3" width="3" height="1" fill="#0a0810"></rect><rect x="27" y="3" width="2" height="1" fill="#6b21a8"></rect><rect x="29" y="3" width="1" height="1" fill="#0a0810"></rect><rect x="21" y="4" width="3" height="1" fill="#0a0810"></rect><rect x="24" y="4" width="3" height="1" fill="#6b21a8"></rect><rect x="27" y="4" width="1" height="1" fill="#d8b4fe"></rect><rect x="28" y="4" width="1" height="1" fill="#f3e8ff"></rect><rect x="29" y="4" width="1" height="1" fill="#0a0810"></rect><rect x="20" y="5" width="1" height="1" fill="#0a0810"></rect><rect x="21" y="5" width="1" height="1" fill="#6b21a8"></rect><rect x="22" y="5" width="4" height="1" fill="#a855f7"></rect><rect x="26" y="5" width="2" height="1" fill="#d8b4fe"></rect><rect x="28" y="5" width="1" height="1" fill="#f3e8ff"></rect><rect x="29" y="5" width="1" height="1" fill="#0a0810"></rect><rect x="21" y="6" width="1" height="1" fill="#0a0810"></rect><rect x="22" y="6" width="1" height="1" fill="#6b21a8"></rect><rect x="23" y="6" width="1" height="1" fill="#0a0810"></rect><rect x="24" y="6" width="3" height="1" fill="#6b21a8"></rect><rect x="27" y="6" width="1" height="1" fill="#d8b4fe"></rect><rect x="28" y="6" width="1" height="1" fill="#f3e8ff"></rect><rect x="29" y="6" width="1" height="1" fill="#0a0810"></rect><rect x="22" y="7" width="1" height="1" fill="#0a0810"></rect><rect x="24" y="7" width="3" height="1" fill="#0a0810"></rect><rect x="27" y="7" width="2" height="1" fill="#6b21a8"></rect><rect x="29" y="7" width="1" height="1" fill="#0a0810"></rect><rect x="27" y="8" width="2" height="1" fill="#0a0810"></rect></svg>