<svg xmlns="http://www.w3.org/2000/svg" width="200" height="20" viewBox="0 0 200 20" shape-rendering="crispEdges"><rect x="18" y="8" width="2" height="1" fill="#4a7fa0"></rect><rect x="21" y="8" width="2" height="1" fill="#4a7fa0"></rect><rect x="16" y="9" width="2" height="1" fill="#4a7fa0"></rect><rect x="23" y="9" width="2" height="1" fill="#4a7fa0"></rect><rect x="16" y="10" width="1" height="1" fill="#4a7fa0"></rect><rect x="20" y="10" width="1" height="1" fill="#d8cfe0"></rect><rect x="21" y="10" width="1" height="1" fill="#4a7fa0"></rect><rect x="24" y="10" width="1" height="1" fill="#4a7fa0"></rect><rect x="16" y="11" width="2" height="1" fill="#4a7fa0"></rect><rect x="23" y="11" width="2" height="1" fill="#4a7fa0"></rect><rect x="18" y="12" width="4" height="1" fill="#173a52"></rect><rect x="22" y="12" width="1" height="1" fill="#4a7fa0"></rect><rect x="57" y="7" width="1" height="1" fill="#4a7fa0"></rect><rect x="59" y="7" width="3" height="1" fill="#4a7fa0"></rect><rect x="63" y="7" width="1" height="1" fill="#4a7fa0"></rect><rect x="55" y="8" width="2" height="1" fill="#4a7fa0"></rect><rect x="64" y="8" width="2" height="1" fill="#4a7fa0"></rect><rect x="54" y="9" width="1" height="1" fill="#4a7fa0"></rect><rect x="66" y="9" width="1" height="1" fill="#4a7fa0"></rect><rect x="54" y="10" width="1" height="1" fill="#4a7fa0"></rect><rect x="58" y="10" width="1" height="1" fill="#4a7fa0"></rect><rect x="66" y="10" width="1" height="1" fill="#4a7fa0"></rect><rect x="54" y="11" width="1" height="1" fill="#4a7fa0"></rect><rect x="66" y="11" width="1" height="1" fill="#4a7fa0"></rect><rect x="55" y="12" width="2" height="1" fill="#4a7fa0"></rect><rect x="64" y="12" width="2" height="1" fill="#4a7fa0"></rect><rect x="57" y="13" width="1" height="1" fill="#4a7fa0"></rect><rect x="58" y="13" width="4" height="1" fill="#173a52"></rect><rect x="63" y="13" width="1" height="1" fill="#4a7fa0"></rect><rect x="96" y="6" width="1" height="1" fill="#4a7fa0"></rect><rect x="98" y="6" width="1" height="1" fill="#4a7fa0"></rect><rect x="100" y="6" width="1" height="1" fill="#4a7fa0"></rect><rect x="104" y="6" width="1" height="1" fill="#4a7fa0"></rect><rect x="93" y="7" width="1" height="1" fill="#4a7fa0"></rect><rect x="106" y="7" width="1" height="1" fill="#4a7fa0"></rect><rect x="108" y="9" width="1" height="1" fill="#4a7fa0"></rect><rect x="92" y="10" width="1" height="1" fill="#4a7fa0"></rect><rect x="92" y="11" width="1" height="1" fill="#4a7fa0"></rect><rect x="93" y="12" width="1" height="1" fill="#4a7fa0"></rect><rect x="98" y="12" width="4" height="1" fill="#173a52"></rect><rect x="107" y="12" width="1" height="1" fill="#4a7fa0"></rect><rect x="94" y="13" width="1" height="1" fill="#4a7fa0"></rect><rect x="106" y="13" width="2" height="1" fill="#4a7fa0"></rect><rect x="98" y="14" width="2" height="1" fill="#4a7fa0"></rect><rect x="102" y="14" width="2" height="1" fill="#4a7fa0"></rect><rect x="135" y="5" width="1" height="1" fill="#4a7fa0"></rect><rect x="138" y="5" width="2" height="1" fill="#4a7fa0"></rect><rect x="142" y="5" width="2" height="1" fill="#4a7fa0"></rect><rect x="133" y="6" width="2" height="1" fill="#4a7fa0"></rect><rect x="147" y="6" width="1" height="1" fill="#4a7fa0"></rect><rect x="132" y="7" width="1" height="1" fill="#4a7fa0"></rect><rect x="130" y="8" width="1" height="1" fill="#4a7fa0"></rect><rect x="149" y="8" width="2" height="1" fill="#4a7fa0"></rect><rect x="130" y="11" width="1" height="1" fill="#4a7fa0"></rect><rect x="130" y="12" width="1" height="1" fill="#4a7fa0"></rect><rect x="135" y="12" width="1" height="1" fill="#4a7fa0"></rect><rect x="131" y="13" width="1" height="1" fill="#4a7fa0"></rect><rect x="138" y="13" width="4" height="1" fill="#173a52"></rect><rect x="132" y="14" width="2" height="1" fill="#4a7fa0"></rect><rect x="147" y="14" width="1" height="1" fill="#4a7fa0"></rect><rect x="135" y="15" width="1" height="1" fill="#4a7fa0"></rect><rect x="141" y="15" width="1" height="1" fill="#4a7fa0"></rect><rect x="145" y="15" width="1" height="1" fill="#4a7fa0"></rect><rect x="182" y="8" width="3" height="1" fill="#173a52"></rect><rect x="185" y="9" width="1" height="1" fill="#173a52"></rect><rect x="180" y="10" width="1" height="1" fill="#173a52"></rect><rect x="175" y="11" width="1" height="1" fill="#173a52"></rect><rect x="181" y="12" width="1" height="1" fill="#173a52"></rect></svg>