<svg xmlns="http://www.w3.org/2000/svg" width="64" height="16" viewBox="0 0 64 16" shape-rendering="crispEdges"><rect x="8" y="5" width="1" height="1" fill="#0a0810"></rect><rect x="12" y="5" width="1" height="1" fill="#0a0810"></rect><rect x="6" y="6" width="2" height="1" fill="#0a0810"></rect><rect x="8" y="6" width="1" height="1" fill="#14101e"></rect><rect x="9" y="6" width="3" height="1" fill="#0a0810"></rect><rect x="12" y="6" width="1" height="1" fill="#322b46"></rect><rect x="13" y="6" width="2" height="1" fill="#0a0810"></rect><rect x="5" y="7" width="1" height="1" fill="#0a0810"></rect><rect x="6" y="7" width="1" height="1" fill="#14101e"></rect><rect x="7" y="7" width="3" height="1" fill="#322b46"></rect><rect x="10" y="7" width="1" height="1" fill="#14101e"></rect><rect x="11" y="7" width="1" height="1" fill="#322b46"></rect><rect x="12" y="7" width="1" height="1" fill="#d8b4fe"></rect><rect x="13" y="7" width="3" height="1" fill="#0a0810"></rect><rect x="4" y="8" width="1" height="1" fill="#0a0810"></rect><rect x="5" y="8" width="1" height="1" fill="#14101e"></rect><rect x="6" y="8" width="5" height="1" fill="#322b46"></rect><rect x="11" y="8" width="1" height="1" fill="#14101e"></rect><rect x="12" y="8" width="3" height="1" fill="#0a0810"></rect><rect x="4" y="9" width="1" height="1" fill="#0a0810"></rect><rect x="5" y="9" width="7" height="1" fill="#211c30"></rect><rect x="12" y="9" width="1" height="1" fill="#0a0810"></rect><rect x="3" y="10" width="1" height="1" fill="#0a0810"></rect><rect x="4" y="10" width="1" height="1" fill="#14101e"></rect><rect x="5" y="10" width="7" height="1" fill="#211c30"></rect><rect x="12" y="10" width="1" height="1" fill="#14101e"></rect><rect x="13" y="10" width="1" height="1" fill="#0a0810"></rect><rect x="4" y="11" width="1" height="1" fill="#0a0810"></rect><rect x="5" y="11" width="7" height="1" fill="#211c30"></rect><rect x="12" y="11" width="1" height="1" fill="#0a0810"></rect><rect x="4" y="12" width="1" height="1" fill="#0a0810"></rect><rect x="5" y="12" width="1" height="1" fill="#14101e"></rect><rect x="6" y="12" width="5" height="1" fill="#211c30"></rect><rect x="11" y="12" width="1" height="1" fill="#14101e"></rect><rect x="12" y="12" width="1" height="1" fill="#0a0810"></rect><rect x="4" y="13" width="1" height="1" fill="#0a0810"></rect><rect x="5" y="13" width="2" height="1" fill="#14101e"></rect><rect x="7" y="13" width="3" height="1" fill="#211c30"></rect><rect x="10" y="13" width="1" height="1" fill="#14101e"></rect><rect x="11" y="13" width="1" height="1" fill="#0a0810"></rect><rect x="4" y="14" width="1" height="1" fill="#0a0810"></rect><rect x="5" y="14" width="1" height="1" fill="#14101e"></rect><rect x="6" y="14" width="2" height="1" fill="#0a0810"></rect><rect x="8" y="14" width="2" height="1" fill="#14101e"></rect><rect x="10" y="14" width="1" height="1" fill="#0a0810"></rect><rect x="4" y="15" width="1" height="1" fill="#0a0810"></rect><rect x="5" y="15" width="1" height="1" fill="#14101e"></rect><rect x="6" y="15" width="1" height="1" fill="#0a0810"></rect><rect x="8" y="15" width="2" height="1" fill="#0a0810"></rect><rect x="24" y="5" width="1" height="1" fill="#0a0810"></rect><rect x="29" y="5" width="1" height="1" fill="#0a0810"></rect><rect x="22" y="6" width="2" height="1" fill="#0a0810"></rect><rect x="24" y="6" width="1" height="1" fill="#14101e"></rect><rect x="25" y="6" width="2" height="1" fill="#0a0810"></rect><rect x="28" y="6" width="1" height="1" fill="#0a0810"></rect><rect x="29" y="6" width="1" height="1" fill="#322b46"></rect><rect x="30" y="6" width="2" height="1" fill="#0a0810"></rect><rect x="21" y="7" width="1" height="1" fill="#0a0810"></rect><rect x="22" y="7" width="1" height="1" fill="#14101e"></rect><rect x="23" y="7" width="3" height="1" fill="#322b46"></rect><rect x="26" y="7" width="1" height="1" fill="#14101e"></rect><rect x="27" y="7" width="1" height="1" fill="#0a0810"></rect><rect x="28" y="7" width="1" height="1" fill="#322b46"></rect><rect x="29" y="7" width="1" height="1" fill="#d8b4fe"></rect><rect x="30" y="7" width="2" height="1" fill="#0a0810"></rect><rect x="20" y="8" width="1" height="1" fill="#0a0810"></rect><rect x="21" y="8" width="1" height="1" fill="#14101e"></rect><rect x="22" y="8" width="5" height="1" fill="#322b46"></rect><rect x="27" y="8" width="1" height="1" fill="#14101e"></rect><rect x="28" y="8" width="4" height="1" fill="#0a0810"></rect><rect x="20" y="9" width="1" height="1" fill="#0a0810"></rect><rect x="21" y="9" width="7" height="1" fill="#211c30"></rect><rect x="28" y="9" width="1" height="1" fill="#0a0810"></rect><rect x="19" y="10" width="1" height="1" fill="#0a0810"></rect><rect x="20" y="10" width="1" height="1" fill="#14101e"></rect><rect x="21" y="10" width="7" height="1" fill="#211c30"></rect><rect x="28" y="10" width="1" height="1" fill="#14101e"></rect><rect x="29" y="10" width="1" height="1" fill="#0a0810"></rect><rect x="20" y="11" width="1" height="1" fill="#0a0810"></rect><rect x="21" y="11" width="7" height="1" fill="#211c30"></rect><rect x="28" y="11" width="1" height="1" fill="#0a0810"></rect><rect x="20" y="12" width="1" height="1" fill="#0a0810"></rect><rect x="21" y="12" width="1" height="1" fill="#14101e"></rect><rect x="22" y="12" width="5" height="1" fill="#211c30"></rect><rect x="27" y="12" width="1" height="1" fill="#14101e"></rect><rect x="28" y="12" width="1" height="1" fill="#0a0810"></rect><rect x="20" y="13" width="1" height="1" fill="#0a0810"></rect><rect x="21" y="13" width="2" height="1" fill="#14101e"></rect><rect x="23" y="13" width="3" height="1" fill="#211c30"></rect><rect x="26" y="13" width="1" height="1" fill="#14101e"></rect><rect x="27" y="13" width="1" height="1" fill="#0a0810"></rect><rect x="20" y="14" width="1" height="1" fill="#0a0810"></rect><rect x="21" y="14" width="1" height="1" fill="#14101e"></rect><rect x="22" y="14" width="2" height="1" fill="#0a0810"></rect><rect x="24" y="14" width="2" height="1" fill="#14101e"></rect><rect x="26" y="14" width="1" height="1" fill="#0a0810"></rect><rect x="20" y="15" width="1" height="1" fill="#0a0810"></rect><rect x="21" y="15" width="1" height="1" fill="#14101e"></rect><rect x="22" y="15" width="1" height="1" fill="#0a0810"></rect><rect x="24" y="15" width="2" height="1" fill="#0a0810"></rect><rect x="32" y="1" width="1" height="1" fill="#0a0810"></rect><rect x="32" y="2" width="1" height="1" fill="#14101e"></rect><rect x="33" y="2" width="1" height="1" fill="#0a0810"></rect><rect x="47" y="2" width="1" height="1" fill="#0a0810"></rect><rect x="32" y="3" width="1" height="1" fill="#0a0810"></rect><rect x="33" y="3" width="1" height="1" fill="#211c30"></rect><rect x="34" y="3" width="2" height="1" fill="#0a0810"></rect><rect x="45" y="3" width="2" height="1" fill="#0a0810"></rect><rect x="47" y="3" width="1" height="1" fill="#211c30"></rect><rect x="33" y="4" width="2" height="1" fill="#0a0810"></rect><rect x="35" y="4" width="1" height="1" fill="#211c30"></rect><rect x="36" y="4" width="1" height="1" fill="#0a0810"></rect><rect x="39" y="4" width="3" height="1" fill="#0a0810"></rect><rect x="44" y="4" width="1" height="1" fill="#0a0810"></rect><rect x="45" y="4" width="1" height="1" fill="#211c30"></rect><rect x="46" y="4" width="2" height="1" fill="#0a0810"></rect><rect x="35" y="5" width="1" height="1" fill="#0a0810"></rect><rect x="36" y="5" width="1" height="1" fill="#211c30"></rect><rect x="37" y="5" width="2" height="1" fill="#0a0810"></rect><rect x="39" y="5" width="1" height="1" fill="#14101e"></rect><rect x="40" y="5" width="1" height="1" fill="#322b46"></rect><rect x="41" y="5" width="1" height="1" fill="#14101e"></rect><rect x="42" y="5" width="2" height="1" fill="#0a0810"></rect><rect x="44" y="5" width="1" height="1" fill="#211c30"></rect><rect x="45" y="5" width="1" height="1" fill="#0a0810"></rect><rect x="36" y="6" width="2" height="1" fill="#0a0810"></rect><rect x="38" y="6" width="1" height="1" fill="#211c30"></rect><rect x="39" y="6" width="3" height="1" fill="#322b46"></rect><rect x="42" y="6" width="1" height="1" fill="#211c30"></rect><rect x="43" y="6" width="1" height="1" fill="#a855f7"></rect><rect x="44" y="6" width="1" height="1" fill="#14101e"></rect><rect x="45" y="6" width="2" height="1" fill="#0a0810"></rect><rect x="35" y="7" width="2" height="1" fill="#0a0810"></rect><rect x="37" y="7" width="1" height="1" fill="#14101e"></rect><rect x="38" y="7" width="1" height="1" fill="#211c30"></rect><rect x="39" y="7" width="1" height="1" fill="#322b46"></rect><rect x="40" y="7" width="1" height="1" fill="#211c30"></rect><rect x="41" y="7" width="1" height="1" fill="#322b46"></rect><rect x="42" y="7" width="1" height="1" fill="#211c30"></rect><rect x="43" y="7" width="1" height="1" fill="#14101e"></rect><rect x="44" y="7" width="2" height="1" fill="#0a0810"></rect><rect x="34" y="8" width="1" height="1" fill="#0a0810"></rect><rect x="35" y="8" width="3" height="1" fill="#14101e"></rect><rect x="38" y="8" width="5" height="1" fill="#211c30"></rect><rect x="43" y="8" width="1" height="1" fill="#0a0810"></rect><rect x="35" y="9" width="4" height="1" fill="#0a0810"></rect><rect x="39" y="9" width="1" height="1" fill="#14101e"></rect><rect x="40" y="9" width="1" height="1" fill="#211c30"></rect><rect x="41" y="9" width="1" height="1" fill="#14101e"></rect><rect x="42" y="9" width="1" height="1" fill="#0a0810"></rect><rect x="39" y="10" width="3" height="1" fill="#0a0810"></rect><rect x="55" y="4" width="3" height="1" fill="#0a0810"></rect><rect x="54" y="5" width="1" height="1" fill="#0a0810"></rect><rect x="55" y="5" width="1" height="1" fill="#14101e"></rect><rect x="56" y="5" width="1" height="1" fill="#322b46"></rect><rect x="57" y="5" width="1" height="1" fill="#14101e"></rect><rect x="58" y="5" width="4" height="1" fill="#0a0810"></rect><rect x="53" y="6" width="1" height="1" fill="#0a0810"></rect><rect x="54" y="6" width="5" height="1" fill="#322b46"></rect><rect x="59" y="6" width="1" height="1" fill="#a855f7"></rect><rect x="60" y="6" width="1" height="1" fill="#14101e"></rect><rect x="61" y="6" width="2" height="1" fill="#0a0810"></rect><rect x="51" y="7" width="2" height="1" fill="#0a0810"></rect><rect x="53" y="7" width="1" height="1" fill="#14101e"></rect><rect x="54" y="7" width="1" height="1" fill="#211c30"></rect><rect x="55" y="7" width="1" height="1" fill="#322b46"></rect><rect x="56" y="7" width="1" height="1" fill="#211c30"></rect><rect x="57" y="7" width="1" height="1" fill="#322b46"></rect><rect x="58" y="7" width="1" height="1" fill="#211c30"></rect><rect x="59" y="7" width="1" height="1" fill="#14101e"></rect><rect x="60" y="7" width="2" height="1" fill="#0a0810"></rect><rect x="50" y="8" width="1" height="1" fill="#0a0810"></rect><rect x="51" y="8" width="3" height="1" fill="#14101e"></rect><rect x="54" y="8" width="5" height="1" fill="#211c30"></rect><rect x="59" y="8" width="3" height="1" fill="#0a0810"></rect><rect x="49" y="9" width="2" height="1" fill="#0a0810"></rect><rect x="51" y="9" width="2" height="1" fill="#211c30"></rect><rect x="53" y="9" width="2" height="1" fill="#0a0810"></rect><rect x="55" y="9" width="1" height="1" fill="#14101e"></rect><rect x="56" y="9" width="1" height="1" fill="#211c30"></rect><rect x="57" y="9" width="1" height="1" fill="#14101e"></rect><rect x="58" y="9" width="2" height="1" fill="#0a0810"></rect><rect x="60" y="9" width="2" height="1" fill="#211c30"></rect><rect x="62" y="9" width="2" height="1" fill="#0a0810"></rect><rect x="48" y="10" width="1" height="1" fill="#0a0810"></rect><rect x="49" y="10" width="1" height="1" fill="#211c30"></rect><rect x="50" y="10" width="3" height="1" fill="#0a0810"></rect><rect x="55" y="10" width="3" height="1" fill="#0a0810"></rect><rect x="60" y="10" width="3" height="1" fill="#0a0810"></rect><rect x="63" y="10" width="1" height="1" fill="#211c30"></rect><rect x="48" y="11" width="1" height="1" fill="#14101e"></rect><rect x="49" y="11" width="1" height="1" fill="#0a0810"></rect><rect x="63" y="11" width="1" height="1" fill="#0a0810"></rect><rect x="48" y="12" width="1" height="1" fill="#0a0810"></rect></svg>