<svg xmlns="http://www.w3.org/2000/svg" width="96" height="48" viewBox="0 0 96 48" shape-rendering="crispEdges"><rect x="24" y="9" width="1" height="1" fill="#0a0810"></rect><rect x="11" y="10" width="4" height="1" fill="#0a0810"></rect><rect x="23" y="10" width="1" height="1" fill="#0a0810"></rect><rect x="24" y="10" width="1" height="1" fill="#f6e0a6"></rect><rect x="25" y="10" width="1" height="1" fill="#0a0810"></rect><rect x="10" y="11" width="1" height="1" fill="#0a0810"></rect><rect x="11" y="11" width="4" height="1" fill="#f6e0a6"></rect><rect x="15" y="11" width="6" height="1" fill="#0a0810"></rect><rect x="23" y="11" width="1" height="1" fill="#0a0810"></rect><rect x="24" y="11" width="1" height="1" fill="#e7c873"></rect><rect x="25" y="11" width="1" height="1" fill="#0a0810"></rect><rect x="9" y="12" width="2" height="1" fill="#0a0810"></rect><rect x="11" y="12" width="4" height="1" fill="#e7c873"></rect><rect x="15" y="12" width="6" height="1" fill="#f6e0a6"></rect><rect x="21" y="12" width="2" height="1" fill="#0a0810"></rect><rect x="23" y="12" width="1" height="1" fill="#b8943f"></rect><rect x="24" y="12" width="1" height="1" fill="#e7c873"></rect><rect x="25" y="12" width="1" height="1" fill="#7c5f23"></rect><rect x="26" y="12" width="2" height="1" fill="#0a0810"></rect><rect x="8" y="13" width="1" height="1" fill="#0a0810"></rect><rect x="9" y="13" width="1" height="1" fill="#7c5f23"></rect><rect x="10" y="13" width="3" height="1" fill="#0a0810"></rect><rect x="13" y="13" width="1" height="1" fill="#7c5f23"></rect><rect x="14" y="13" width="1" height="1" fill="#0a0810"></rect><rect x="15" y="13" width="6" height="1" fill="#e7c873"></rect><rect x="21" y="13" width="7" height="1" fill="#f6e0a6"></rect><rect x="28" y="13" width="6" height="1" fill="#0a0810"></rect><rect x="8" y="14" width="1" height="1" fill="#0a0810"></rect><rect x="9" y="14" width="1" height="1" fill="#7c5f23"></rect><rect x="10" y="14" width="3" height="1" fill="#0a0810"></rect><rect x="13" y="14" width="1" height="1" fill="#7c5f23"></rect><rect x="14" y="14" width="7" height="1" fill="#0a0810"></rect><rect x="21" y="14" width="4" height="1" fill="#e7c873"></rect><rect x="25" y="14" width="3" height="1" fill="#b8943f"></rect><rect x="28" y="14" width="6" height="1" fill="#f6e0a6"></rect><rect x="34" y="14" width="4" height="1" fill="#0a0810"></rect><rect x="39" y="14" width="1" height="1" fill="#0a0810"></rect><rect x="8" y="15" width="1" height="1" fill="#0a0810"></rect><rect x="9" y="15" width="1" height="1" fill="#7c5f23"></rect><rect x="10" y="15" width="1" height="1" fill="#0a0810"></rect><rect x="11" y="15" width="1" height="1" fill="#f6e0a6"></rect><rect x="12" y="15" width="1" height="1" fill="#0a0810"></rect><rect x="13" y="15" width="1" height="1" fill="#7c5f23"></rect><rect x="14" y="15" width="1" height="1" fill="#0a0810"></rect><rect x="21" y="15" width="2" height="1" fill="#0a0810"></rect><rect x="23" y="15" width="1" height="1" fill="#b8943f"></rect><rect x="24" y="15" width="1" height="1" fill="#e7c873"></rect><rect x="25" y="15" width="1" height="1" fill="#7c5f23"></rect><rect x="26" y="15" width="2" height="1" fill="#0a0810"></rect><rect x="28" y="15" width="6" height="1" fill="#b8943f"></rect><rect x="34" y="15" width="1" height="1" fill="#f6e0a6"></rect><rect x="35" y="15" width="1" height="1" fill="#7c5f23"></rect><rect x="36" y="15" width="2" height="1" fill="#f6e0a6"></rect><rect x="38" y="15" width="1" height="1" fill="#0a0810"></rect><rect x="39" y="15" width="1" height="1" fill="#7c5f23"></rect><rect x="40" y="15" width="1" height="1" fill="#0a0810"></rect><rect x="8" y="16" width="1" height="1" fill="#0a0810"></rect><rect x="9" y="16" width="1" height="1" fill="#7c5f23"></rect><rect x="10" y="16" width="1" height="1" fill="#f6e0a6"></rect><rect x="11" y="16" width="2" height="1" fill="#e7c873"></rect><rect x="13" y="16" width="1" height="1" fill="#7c5f23"></rect><rect x="14" y="16" width="1" height="1" fill="#0a0810"></rect><rect x="22" y="16" width="1" height="1" fill="#0a0810"></rect><rect x="23" y="16" width="1" height="1" fill="#b8943f"></rect><rect x="24" y="16" width="1" height="1" fill="#e7c873"></rect><rect x="25" y="16" width="1" height="1" fill="#7c5f23"></rect><rect x="26" y="16" width="1" height="1" fill="#0a0810"></rect><rect x="28" y="16" width="6" height="1" fill="#0a0810"></rect><rect x="34" y="16" width="1" height="1" fill="#b8943f"></rect><rect x="35" y="16" width="1" height="1" fill="#7c5f23"></rect><rect x="36" y="16" width="1" height="1" fill="#b8943f"></rect><rect x="37" y="16" width="1" height="1" fill="#f3e8ff"></rect><rect x="38" y="16" width="1" height="1" fill="#0a0810"></rect><rect x="39" y="16" width="1" height="1" fill="#7c5f23"></rect><rect x="40" y="16" width="1" height="1" fill="#0a0810"></rect><rect x="8" y="17" width="2" height="1" fill="#0a0810"></rect><rect x="10" y="17" width="3" height="1" fill="#b8943f"></rect><rect x="13" y="17" width="2" height="1" fill="#0a0810"></rect><rect x="22" y="17" width="1" height="1" fill="#0a0810"></rect><rect x="23" y="17" width="1" height="1" fill="#b8943f"></rect><rect x="24" y="17" width="1" height="1" fill="#e7c873"></rect><rect x="25" y="17" width="1" height="1" fill="#7c5f23"></rect><rect x="26" y="17" width="1" height="1" fill="#0a0810"></rect><rect x="34" y="17" width="1" height="1" fill="#0a0810"></rect><rect x="35" y="17" width="1" height="1" fill="#7c5f23"></rect><rect x="36" y="17" width="1" height="1" fill="#0a0810"></rect><rect x="37" y="17" width="1" height="1" fill="#d8b4fe"></rect><rect x="38" y="17" width="1" height="1" fill="#0a0810"></rect><rect x="39" y="17" width="1" height="1" fill="#7c5f23"></rect><rect x="40" y="17" width="1" height="1" fill="#0a0810"></rect><rect x="7" y="18" width="1" height="1" fill="#0a0810"></rect><rect x="8" y="18" width="2" height="1" fill="#b8943f"></rect><rect x="10" y="18" width="3" height="1" fill="#7c5f23"></rect><rect x="13" y="18" width="2" height="1" fill="#b8943f"></rect><rect x="15" y="18" width="1" height="1" fill="#0a0810"></rect><rect x="22" y="18" width="1" height="1" fill="#0a0810"></rect><rect x="23" y="18" width="1" height="1" fill="#b8943f"></rect><rect x="24" y="18" width="1" height="1" fill="#e7c873"></rect><rect x="25" y="18" width="1" height="1" fill="#7c5f23"></rect><rect x="26" y="18" width="1" height="1" fill="#0a0810"></rect><rect x="34" y="18" width="1" height="1" fill="#0a0810"></rect><rect x="35" y="18" width="1" height="1" fill="#7c5f23"></rect><rect x="36" y="18" width="3" height="1" fill="#f3e8ff"></rect><rect x="39" y="18" width="1" height="1" fill="#7c5f23"></rect><rect x="40" y="18" width="1" height="1" fill="#0a0810"></rect><rect x="6" y="19" width="1" height="1" fill="#0a0810"></rect><rect x="7" y="19" width="1" height="1" fill="#b8943f"></rect><rect x="8" y="19" width="2" height="1" fill="#7c5f23"></rect><rect x="10" y="19" width="3" height="1" fill="#0a0810"></rect><rect x="13" y="19" width="2" height="1" fill="#7c5f23"></rect><rect x="15" y="19" width="1" height="1" fill="#b8943f"></rect><rect x="16" y="19" width="1" height="1" fill="#0a0810"></rect><rect x="22" y="19" width="1" height="1" fill="#0a0810"></rect><rect x="23" y="19" width="1" height="1" fill="#b8943f"></rect><rect x="24" y="19" width="1" height="1" fill="#e7c873"></rect><rect x="25" y="19" width="1" height="1" fill="#7c5f23"></rect><rect x="26" y="19" width="1" height="1" fill="#0a0810"></rect><rect x="34" y="19" width="2" height="1" fill="#0a0810"></rect><rect x="36" y="19" width="3" height="1" fill="#b8943f"></rect><rect x="39" y="19" width="2" height="1" fill="#0a0810"></rect><rect x="6" y="20" width="1" height="1" fill="#0a0810"></rect><rect x="7" y="20" width="1" height="1" fill="#7c5f23"></rect><rect x="8" y="20" width="2" height="1" fill="#0a0810"></rect><rect x="13" y="20" width="2" height="1" fill="#0a0810"></rect><rect x="15" y="20" width="1" height="1" fill="#7c5f23"></rect><rect x="16" y="20" width="1" height="1" fill="#0a0810"></rect><rect x="22" y="20" width="1" height="1" fill="#0a0810"></rect><rect x="23" y="20" width="1" height="1" fill="#b8943f"></rect><rect x="24" y="20" width="1" height="1" fill="#e7c873"></rect><rect x="25" y="20" width="1" height="1" fill="#7c5f23"></rect><rect x="26" y="20" width="1" height="1" fill="#0a0810"></rect><rect x="33" y="20" width="1" height="1" fill="#0a0810"></rect><rect x="34" y="20" width="2" height="1" fill="#b8943f"></rect><rect x="36" y="20" width="3" height="1" fill="#7c5f23"></rect><rect x="39" y="20" width="2" height="1" fill="#b8943f"></rect><rect x="41" y="20" width="1" height="1" fill="#0a0810"></rect><rect x="7" y="21" width="1" height="1" fill="#0a0810"></rect><rect x="15" y="21" width="1" height="1" fill="#0a0810"></rect><rect x="22" y="21" width="1" height="1" fill="#0a0810"></rect><rect x="23" y="21" width="1" height="1" fill="#b8943f"></rect><rect x="24" y="21" width="1" height="1" fill="#e7c873"></rect><rect x="25" y="21" width="1" height="1" fill="#7c5f23"></rect><rect x="26" y="21" width="1" height="1" fill="#0a0810"></rect><rect x="32" y="21" width="1" height="1" fill="#0a0810"></rect><rect x="33" y="21" width="1" height="1" fill="#b8943f"></rect><rect x="34" y="21" width="2" height="1" fill="#7c5f23"></rect><rect x="36" y="21" width="3" height="1" fill="#0a0810"></rect><rect x="39" y="21" width="2" height="1" fill="#7c5f23"></rect><rect x="41" y="21" width="1" height="1" fill="#b8943f"></rect><rect x="42" y="21" width="1" height="1" fill="#0a0810"></rect><rect x="22" y="22" width="1" height="1" fill="#0a0810"></rect><rect x="23" y="22" width="1" height="1" fill="#b8943f"></rect><rect x="24" y="22" width="1" height="1" fill="#e7c873"></rect><rect x="25" y="22" width="1" height="1" fill="#7c5f23"></rect><rect x="26" y="22" width="1" height="1" fill="#0a0810"></rect><rect x="32" y="22" width="1" height="1" fill="#0a0810"></rect><rect x="33" y="22" width="1" height="1" fill="#7c5f23"></rect><rect x="34" y="22" width="2" height="1" fill="#0a0810"></rect><rect x="39" y="22" width="2" height="1" fill="#0a0810"></rect><rect x="41" y="22" width="1" height="1" fill="#7c5f23"></rect><rect x="42" y="22" width="1" height="1" fill="#0a0810"></rect><rect x="22" y="23" width="1" height="1" fill="#0a0810"></rect><rect x="23" y="23" width="1" height="1" fill="#b8943f"></rect><rect x="24" y="23" width="1" height="1" fill="#e7c873"></rect><rect x="25" y="23" width="1" height="1" fill="#7c5f23"></rect><rect x="26" y="23" width="1" height="1" fill="#0a0810"></rect><rect x="33" y="23" width="1" height="1" fill="#0a0810"></rect><rect x="41" y="23" width="1" height="1" fill="#0a0810"></rect><rect x="22" y="24" width="1" height="1" fill="#0a0810"></rect><rect x="23" y="24" width="1" height="1" fill="#b8943f"></rect><rect x="24" y="24" width="1" height="1" fill="#e7c873"></rect><rect x="25" y="24" width="1" height="1" fill="#7c5f23"></rect><rect x="26" y="24" width="1" height="1" fill="#0a0810"></rect><rect x="22" y="25" width="1" height="1" fill="#0a0810"></rect><rect x="23" y="25" width="1" height="1" fill="#b8943f"></rect><rect x="24" y="25" width="1" height="1" fill="#e7c873"></rect><rect x="25" y="25" width="1" height="1" fill="#7c5f23"></rect><rect x="26" y="25" width="1" height="1" fill="#0a0810"></rect><rect x="22" y="26" width="1" height="1" fill="#0a0810"></rect><rect x="23" y="26" width="1" height="1" fill="#b8943f"></rect><rect x="24" y="26" width="1" height="1" fill="#e7c873"></rect><rect x="25" y="26" width="1" height="1" fill="#7c5f23"></rect><rect x="26" y="26" width="1" height="1" fill="#0a0810"></rect><rect x="22" y="27" width="1" height="1" fill="#0a0810"></rect><rect x="23" y="27" width="1" height="1" fill="#b8943f"></rect><rect x="24" y="27" width="1" height="1" fill="#e7c873"></rect><rect x="25" y="27" width="1" height="1" fill="#7c5f23"></rect><rect x="26" y="27" width="1" height="1" fill="#0a0810"></rect><rect x="22" y="28" width="1" height="1" fill="#0a0810"></rect><rect x="23" y="28" width="1" height="1" fill="#b8943f"></rect><rect x="24" y="28" width="1" height="1" fill="#e7c873"></rect><rect x="25" y="28" width="1" height="1" fill="#7c5f23"></rect><rect x="26" y="28" width="1" height="1" fill="#0a0810"></rect><rect x="22" y="29" width="1" height="1" fill="#0a0810"></rect><rect x="23" y="29" width="1" height="1" fill="#b8943f"></rect><rect x="24" y="29" width="1" height="1" fill="#e7c873"></rect><rect x="25" y="29" width="1" height="1" fill="#7c5f23"></rect><rect x="26" y="29" width="1" height="1" fill="#0a0810"></rect><rect x="22" y="30" width="1" height="1" fill="#0a0810"></rect><rect x="23" y="30" width="1" height="1" fill="#b8943f"></rect><rect x="24" y="30" width="1" height="1" fill="#e7c873"></rect><rect x="25" y="30" width="1" height="1" fill="#7c5f23"></rect><rect x="26" y="30" width="1" height="1" fill="#0a0810"></rect><rect x="22" y="31" width="1" height="1" fill="#0a0810"></rect><rect x="23" y="31" width="1" height="1" fill="#b8943f"></rect><rect x="24" y="31" width="1" height="1" fill="#e7c873"></rect><rect x="25" y="31" width="1" height="1" fill="#7c5f23"></rect><rect x="26" y="31" width="1" height="1" fill="#0a0810"></rect><rect x="22" y="32" width="1" height="1" fill="#0a0810"></rect><rect x="23" y="32" width="1" height="1" fill="#b8943f"></rect><rect x="24" y="32" width="1" height="1" fill="#e7c873"></rect><rect x="25" y="32" width="1" height="1" fill="#7c5f23"></rect><rect x="26" y="32" width="1" height="1" fill="#0a0810"></rect><rect x="22" y="33" width="1" height="1" fill="#0a0810"></rect><rect x="23" y="33" width="1" height="1" fill="#b8943f"></rect><rect x="24" y="33" width="1" height="1" fill="#e7c873"></rect><rect x="25" y="33" width="1" height="1" fill="#7c5f23"></rect><rect x="26" y="33" width="1" height="1" fill="#0a0810"></rect><rect x="22" y="34" width="1" height="1" fill="#0a0810"></rect><rect x="23" y="34" width="1" height="1" fill="#b8943f"></rect><rect x="24" y="34" width="1" height="1" fill="#e7c873"></rect><rect x="25" y="34" width="1" height="1" fill="#7c5f23"></rect><rect x="26" y="34" width="1" height="1" fill="#0a0810"></rect><rect x="10" y="35" width="9" height="1" fill="#0a0810"></rect><rect x="22" y="35" width="1" height="1" fill="#0a0810"></rect><rect x="23" y="35" width="1" height="1" fill="#b8943f"></rect><rect x="24" y="35" width="1" height="1" fill="#e7c873"></rect><rect x="25" y="35" width="1" height="1" fill="#7c5f23"></rect><rect x="26" y="35" width="1" height="1" fill="#0a0810"></rect><rect x="9" y="36" width="1" height="1" fill="#0a0810"></rect><rect x="10" y="36" width="4" height="1" fill="#d8cfe0"></rect><rect x="14" y="36" width="1" height="1" fill="#241a11"></rect><rect x="15" y="36" width="4" height="1" fill="#d8cfe0"></rect><rect x="19" y="36" width="1" height="1" fill="#0a0810"></rect><rect x="22" y="36" width="1" height="1" fill="#0a0810"></rect><rect x="23" y="36" width="1" height="1" fill="#b8943f"></rect><rect x="24" y="36" width="1" height="1" fill="#e7c873"></rect><rect x="25" y="36" width="1" height="1" fill="#7c5f23"></rect><rect x="26" y="36" width="1" height="1" fill="#0a0810"></rect><rect x="9" y="37" width="1" height="1" fill="#0a0810"></rect><rect x="10" y="37" width="1" height="1" fill="#d8cfe0"></rect><rect x="11" y="37" width="3" height="1" fill="#14101e"></rect><rect x="14" y="37" width="2" height="1" fill="#d8cfe0"></rect><rect x="16" y="37" width="3" height="1" fill="#14101e"></rect><rect x="19" y="37" width="1" height="1" fill="#0a0810"></rect><rect x="22" y="37" width="1" height="1" fill="#0a0810"></rect><rect x="23" y="37" width="1" height="1" fill="#b8943f"></rect><rect x="24" y="37" width="1" height="1" fill="#e7c873"></rect><rect x="25" y="37" width="1" height="1" fill="#7c5f23"></rect><rect x="26" y="37" width="1" height="1" fill="#0a0810"></rect><rect x="8" y="38" width="2" height="1" fill="#0a0810"></rect><rect x="10" y="38" width="9" height="1" fill="#d8cfe0"></rect><rect x="19" y="38" width="3" height="1" fill="#0a0810"></rect><rect x="22" y="38" width="5" height="1" fill="#7c5f23"></rect><rect x="27" y="38" width="14" height="1" fill="#0a0810"></rect><rect x="7" y="39" width="1" height="1" fill="#0a0810"></rect><rect x="8" y="39" width="2" height="1" fill="#7a6048"></rect><rect x="10" y="39" width="1" height="1" fill="#36291c"></rect><rect x="11" y="39" width="6" height="1" fill="#50402e"></rect><rect x="17" y="39" width="1" height="1" fill="#36291c"></rect><rect x="18" y="39" width="4" height="1" fill="#50402e"></rect><rect x="22" y="39" width="5" height="1" fill="#7c5f23"></rect><rect x="27" y="39" width="4" height="1" fill="#50402e"></rect><rect x="31" y="39" width="1" height="1" fill="#36291c"></rect><rect x="32" y="39" width="6" height="1" fill="#50402e"></rect><rect x="38" y="39" width="1" height="1" fill="#36291c"></rect><rect x="39" y="39" width="2" height="1" fill="#241a11"></rect><rect x="41" y="39" width="1" height="1" fill="#0a0810"></rect><rect x="7" y="40" width="1" height="1" fill="#0a0810"></rect><rect x="8" y="40" width="1" height="1" fill="#7a6048"></rect><rect x="9" y="40" width="1" height="1" fill="#36291c"></rect><rect x="10" y="40" width="6" height="1" fill="#50402e"></rect><rect x="16" y="40" width="1" height="1" fill="#36291c"></rect><rect x="17" y="40" width="6" height="1" fill="#50402e"></rect><rect x="23" y="40" width="1" height="1" fill="#36291c"></rect><rect x="24" y="40" width="6" height="1" fill="#50402e"></rect><rect x="30" y="40" width="1" height="1" fill="#36291c"></rect><rect x="31" y="40" width="6" height="1" fill="#50402e"></rect><rect x="37" y="40" width="1" height="1" fill="#36291c"></rect><rect x="38" y="40" width="1" height="1" fill="#50402e"></rect><rect x="39" y="40" width="2" height="1" fill="#241a11"></rect><rect x="41" y="40" width="1" height="1" fill="#0a0810"></rect><rect x="7" y="41" width="1" height="1" fill="#0a0810"></rect><rect x="8" y="41" width="1" height="1" fill="#36291c"></rect><rect x="9" y="41" width="1" height="1" fill="#7a6048"></rect><rect x="10" y="41" width="5" height="1" fill="#50402e"></rect><rect x="15" y="41" width="1" height="1" fill="#36291c"></rect><rect x="16" y="41" width="6" height="1" fill="#50402e"></rect><rect x="22" y="41" width="1" height="1" fill="#36291c"></rect><rect x="23" y="41" width="6" height="1" fill="#50402e"></rect><rect x="29" y="41" width="1" height="1" fill="#36291c"></rect><rect x="30" y="41" width="6" height="1" fill="#50402e"></rect><rect x="36" y="41" width="1" height="1" fill="#36291c"></rect><rect x="37" y="41" width="2" height="1" fill="#50402e"></rect><rect x="39" y="41" width="2" height="1" fill="#241a11"></rect><rect x="41" y="41" width="1" height="1" fill="#0a0810"></rect><rect x="7" y="42" width="1" height="1" fill="#0a0810"></rect><rect x="8" y="42" width="2" height="1" fill="#7a6048"></rect><rect x="10" y="42" width="4" height="1" fill="#50402e"></rect><rect x="14" y="42" width="1" height="1" fill="#36291c"></rect><rect x="15" y="42" width="6" height="1" fill="#50402e"></rect><rect x="21" y="42" width="1" height="1" fill="#36291c"></rect><rect x="22" y="42" width="6" height="1" fill="#50402e"></rect><rect x="28" y="42" width="1" height="1" fill="#36291c"></rect><rect x="29" y="42" width="6" height="1" fill="#50402e"></rect><rect x="35" y="42" width="1" height="1" fill="#36291c"></rect><rect x="36" y="42" width="3" height="1" fill="#50402e"></rect><rect x="39" y="42" width="2" height="1" fill="#241a11"></rect><rect x="41" y="42" width="1" height="1" fill="#0a0810"></rect><rect x="7" y="43" width="1" height="1" fill="#0a0810"></rect><rect x="8" y="43" width="2" height="1" fill="#7a6048"></rect><rect x="10" y="43" width="3" height="1" fill="#50402e"></rect><rect x="13" y="43" width="1" height="1" fill="#36291c"></rect><rect x="14" y="43" width="6" height="1" fill="#50402e"></rect><rect x="20" y="43" width="1" height="1" fill="#36291c"></rect><rect x="21" y="43" width="6" height="1" fill="#50402e"></rect><rect x="27" y="43" width="1" height="1" fill="#36291c"></rect><rect x="28" y="43" width="6" height="1" fill="#50402e"></rect><rect x="34" y="43" width="1" height="1" fill="#36291c"></rect><rect x="35" y="43" width="4" height="1" fill="#50402e"></rect><rect x="39" y="43" width="2" height="1" fill="#241a11"></rect><rect x="41" y="43" width="1" height="1" fill="#0a0810"></rect><rect x="7" y="44" width="1" height="1" fill="#0a0810"></rect><rect x="8" y="44" width="4" height="1" fill="#241a11"></rect><rect x="12" y="44" width="1" height="1" fill="#36291c"></rect><rect x="13" y="44" width="6" height="1" fill="#241a11"></rect><rect x="19" y="44" width="1" height="1" fill="#36291c"></rect><rect x="20" y="44" width="6" height="1" fill="#241a11"></rect><rect x="26" y="44" width="1" height="1" fill="#36291c"></rect><rect x="27" y="44" width="6" height="1" fill="#241a11"></rect><rect x="33" y="44" width="1" height="1" fill="#36291c"></rect><rect x="34" y="44" width="6" height="1" fill="#241a11"></rect><rect x="40" y="44" width="1" height="1" fill="#36291c"></rect><rect x="41" y="44" width="1" height="1" fill="#0a0810"></rect><rect x="7" y="45" width="1" height="1" fill="#0a0810"></rect><rect x="8" y="45" width="3" height="1" fill="#241a11"></rect><rect x="11" y="45" width="1" height="1" fill="#36291c"></rect><rect x="12" y="45" width="6" height="1" fill="#241a11"></rect><rect x="18" y="45" width="1" height="1" fill="#36291c"></rect><rect x="19" y="45" width="6" height="1" fill="#241a11"></rect><rect x="25" y="45" width="1" height="1" fill="#36291c"></rect><rect x="26" y="45" width="6" height="1" fill="#241a11"></rect><rect x="32" y="45" width="1" height="1" fill="#36291c"></rect><rect x="33" y="45" width="6" height="1" fill="#241a11"></rect><rect x="39" y="45" width="1" height="1" fill="#36291c"></rect><rect x="40" y="45" width="1" height="1" fill="#241a11"></rect><rect x="41" y="45" width="1" height="1" fill="#0a0810"></rect><rect x="8" y="46" width="33" height="1" fill="#0a0810"></rect><rect x="72" y="9" width="1" height="1" fill="#0a0810"></rect><rect x="71" y="10" width="1" height="1" fill="#0a0810"></rect><rect x="72" y="10" width="1" height="1" fill="#f6e0a6"></rect><rect x="73" y="10" width="1" height="1" fill="#0a0810"></rect><rect x="82" y="10" width="4" height="1" fill="#0a0810"></rect><rect x="71" y="11" width="1" height="1" fill="#0a0810"></rect><rect x="72" y="11" width="1" height="1" fill="#e7c873"></rect><rect x="73" y="11" width="1" height="1" fill="#0a0810"></rect><rect x="76" y="11" width="6" height="1" fill="#0a0810"></rect><rect x="82" y="11" width="4" height="1" fill="#f6e0a6"></rect><rect x="86" y="11" width="1" height="1" fill="#0a0810"></rect><rect x="69" y="12" width="2" height="1" fill="#0a0810"></rect><rect x="71" y="12" width="1" height="1" fill="#b8943f"></rect><rect x="72" y="12" width="1" height="1" fill="#e7c873"></rect><rect x="73" y="12" width="1" height="1" fill="#7c5f23"></rect><rect x="74" y="12" width="2" height="1" fill="#0a0810"></rect><rect x="76" y="12" width="6" height="1" fill="#f6e0a6"></rect><rect x="82" y="12" width="4" height="1" fill="#b8943f"></rect><rect x="86" y="12" width="2" height="1" fill="#0a0810"></rect><rect x="63" y="13" width="6" height="1" fill="#0a0810"></rect><rect x="69" y="13" width="7" height="1" fill="#f6e0a6"></rect><rect x="76" y="13" width="6" height="1" fill="#b8943f"></rect><rect x="82" y="13" width="1" height="1" fill="#0a0810"></rect><rect x="83" y="13" width="1" height="1" fill="#7c5f23"></rect><rect x="84" y="13" width="3" height="1" fill="#0a0810"></rect><rect x="87" y="13" width="1" height="1" fill="#7c5f23"></rect><rect x="88" y="13" width="1" height="1" fill="#0a0810"></rect><rect x="57" y="14" width="1" height="1" fill="#0a0810"></rect><rect x="59" y="14" width="4" height="1" fill="#0a0810"></rect><rect x="63" y="14" width="6" height="1" fill="#f6e0a6"></rect><rect x="69" y="14" width="4" height="1" fill="#e7c873"></rect><rect x="73" y="14" width="3" height="1" fill="#b8943f"></rect><rect x="76" y="14" width="7" height="1" fill="#0a0810"></rect><rect x="83" y="14" width="1" height="1" fill="#7c5f23"></rect><rect x="84" y="14" width="1" height="1" fill="#0a0810"></rect><rect x="85" y="14" width="1" height="1" fill="#d8b4fe"></rect><rect x="86" y="14" width="1" height="1" fill="#0a0810"></rect><rect x="87" y="14" width="1" height="1" fill="#7c5f23"></rect><rect x="88" y="14" width="1" height="1" fill="#0a0810"></rect><rect x="56" y="15" width="1" height="1" fill="#0a0810"></rect><rect x="57" y="15" width="1" height="1" fill="#7c5f23"></rect><rect x="58" y="15" width="1" height="1" fill="#0a0810"></rect><rect x="59" y="15" width="2" height="1" fill="#f6e0a6"></rect><rect x="61" y="15" width="1" height="1" fill="#7c5f23"></rect><rect x="62" y="15" width="1" height="1" fill="#f6e0a6"></rect><rect x="63" y="15" width="6" height="1" fill="#e7c873"></rect><rect x="69" y="15" width="2" height="1" fill="#0a0810"></rect><rect x="71" y="15" width="1" height="1" fill="#b8943f"></rect><rect x="72" y="15" width="1" height="1" fill="#e7c873"></rect><rect x="73" y="15" width="1" height="1" fill="#7c5f23"></rect><rect x="74" y="15" width="2" height="1" fill="#0a0810"></rect><rect x="82" y="15" width="1" height="1" fill="#0a0810"></rect><rect x="83" y="15" width="1" height="1" fill="#7c5f23"></rect><rect x="84" y="15" width="1" height="1" fill="#0a0810"></rect><rect x="85" y="15" width="1" height="1" fill="#d8b4fe"></rect><rect x="86" y="15" width="1" height="1" fill="#0a0810"></rect><rect x="87" y="15" width="1" height="1" fill="#7c5f23"></rect><rect x="88" y="15" width="1" height="1" fill="#0a0810"></rect><rect x="56" y="16" width="1" height="1" fill="#0a0810"></rect><rect x="57" y="16" width="1" height="1" fill="#7c5f23"></rect><rect x="58" y="16" width="1" height="1" fill="#0a0810"></rect><rect x="59" y="16" width="2" height="1" fill="#e7c873"></rect><rect x="61" y="16" width="1" height="1" fill="#7c5f23"></rect><rect x="62" y="16" width="1" height="1" fill="#e7c873"></rect><rect x="63" y="16" width="6" height="1" fill="#0a0810"></rect><rect x="70" y="16" width="1" height="1" fill="#0a0810"></rect><rect x="71" y="16" width="1" height="1" fill="#b8943f"></rect><rect x="72" y="16" width="1" height="1" fill="#e7c873"></rect><rect x="73" y="16" width="1" height="1" fill="#7c5f23"></rect><rect x="74" y="16" width="1" height="1" fill="#0a0810"></rect><rect x="82" y="16" width="1" height="1" fill="#0a0810"></rect><rect x="83" y="16" width="1" height="1" fill="#a855f7"></rect><rect x="84" y="16" width="3" height="1" fill="#f3e8ff"></rect><rect x="87" y="16" width="1" height="1" fill="#a855f7"></rect><rect x="88" y="16" width="1" height="1" fill="#0a0810"></rect><rect x="56" y="17" width="1" height="1" fill="#0a0810"></rect><rect x="57" y="17" width="1" height="1" fill="#7c5f23"></rect><rect x="58" y="17" width="1" height="1" fill="#0a0810"></rect><rect x="59" y="17" width="1" height="1" fill="#f6e0a6"></rect><rect x="60" y="17" width="1" height="1" fill="#0a0810"></rect><rect x="61" y="17" width="1" height="1" fill="#7c5f23"></rect><rect x="62" y="17" width="1" height="1" fill="#0a0810"></rect><rect x="70" y="17" width="1" height="1" fill="#0a0810"></rect><rect x="71" y="17" width="1" height="1" fill="#b8943f"></rect><rect x="72" y="17" width="1" height="1" fill="#e7c873"></rect><rect x="73" y="17" width="1" height="1" fill="#7c5f23"></rect><rect x="74" y="17" width="1" height="1" fill="#0a0810"></rect><rect x="82" y="17" width="2" height="1" fill="#0a0810"></rect><rect x="84" y="17" width="3" height="1" fill="#b8943f"></rect><rect x="87" y="17" width="2" height="1" fill="#0a0810"></rect><rect x="56" y="18" width="1" height="1" fill="#0a0810"></rect><rect x="57" y="18" width="1" height="1" fill="#7c5f23"></rect><rect x="58" y="18" width="1" height="1" fill="#f6e0a6"></rect><rect x="59" y="18" width="2" height="1" fill="#e7c873"></rect><rect x="61" y="18" width="1" height="1" fill="#7c5f23"></rect><rect x="62" y="18" width="1" height="1" fill="#0a0810"></rect><rect x="70" y="18" width="1" height="1" fill="#0a0810"></rect><rect x="71" y="18" width="1" height="1" fill="#b8943f"></rect><rect x="72" y="18" width="1" height="1" fill="#e7c873"></rect><rect x="73" y="18" width="1" height="1" fill="#7c5f23"></rect><rect x="74" y="18" width="1" height="1" fill="#0a0810"></rect><rect x="81" y="18" width="1" height="1" fill="#0a0810"></rect><rect x="82" y="18" width="2" height="1" fill="#b8943f"></rect><rect x="84" y="18" width="3" height="1" fill="#7c5f23"></rect><rect x="87" y="18" width="2" height="1" fill="#b8943f"></rect><rect x="89" y="18" width="1" height="1" fill="#0a0810"></rect><rect x="56" y="19" width="2" height="1" fill="#0a0810"></rect><rect x="58" y="19" width="3" height="1" fill="#b8943f"></rect><rect x="61" y="19" width="2" height="1" fill="#0a0810"></rect><rect x="70" y="19" width="1" height="1" fill="#0a0810"></rect><rect x="71" y="19" width="1" height="1" fill="#b8943f"></rect><rect x="72" y="19" width="1" height="1" fill="#e7c873"></rect><rect x="73" y="19" width="1" height="1" fill="#7c5f23"></rect><rect x="74" y="19" width="1" height="1" fill="#0a0810"></rect><rect x="80" y="19" width="1" height="1" fill="#0a0810"></rect><rect x="81" y="19" width="1" height="1" fill="#b8943f"></rect><rect x="82" y="19" width="2" height="1" fill="#7c5f23"></rect><rect x="84" y="19" width="3" height="1" fill="#0a0810"></rect><rect x="87" y="19" width="2" height="1" fill="#7c5f23"></rect><rect x="89" y="19" width="1" height="1" fill="#b8943f"></rect><rect x="90" y="19" width="1" height="1" fill="#0a0810"></rect><rect x="55" y="20" width="1" height="1" fill="#0a0810"></rect><rect x="56" y="20" width="2" height="1" fill="#b8943f"></rect><rect x="58" y="20" width="3" height="1" fill="#7c5f23"></rect><rect x="61" y="20" width="2" height="1" fill="#b8943f"></rect><rect x="63" y="20" width="1" height="1" fill="#0a0810"></rect><rect x="70" y="20" width="1" height="1" fill="#0a0810"></rect><rect x="71" y="20" width="1" height="1" fill="#b8943f"></rect><rect x="72" y="20" width="1" height="1" fill="#e7c873"></rect><rect x="73" y="20" width="1" height="1" fill="#7c5f23"></rect><rect x="74" y="20" width="1" height="1" fill="#0a0810"></rect><rect x="80" y="20" width="1" height="1" fill="#0a0810"></rect><rect x="81" y="20" width="1" height="1" fill="#7c5f23"></rect><rect x="82" y="20" width="2" height="1" fill="#0a0810"></rect><rect x="87" y="20" width="2" height="1" fill="#0a0810"></rect><rect x="89" y="20" width="1" height="1" fill="#7c5f23"></rect><rect x="90" y="20" width="1" height="1" fill="#0a0810"></rect><rect x="54" y="21" width="1" height="1" fill="#0a0810"></rect><rect x="55" y="21" width="1" height="1" fill="#b8943f"></rect><rect x="56" y="21" width="2" height="1" fill="#7c5f23"></rect><rect x="58" y="21" width="3" height="1" fill="#0a0810"></rect><rect x="61" y="21" width="2" height="1" fill="#7c5f23"></rect><rect x="63" y="21" width="1" height="1" fill="#b8943f"></rect><rect x="64" y="21" width="1" height="1" fill="#0a0810"></rect><rect x="70" y="21" width="1" height="1" fill="#0a0810"></rect><rect x="71" y="21" width="1" height="1" fill="#b8943f"></rect><rect x="72" y="21" width="1" height="1" fill="#e7c873"></rect><rect x="73" y="21" width="1" height="1" fill="#7c5f23"></rect><rect x="74" y="21" width="1" height="1" fill="#0a0810"></rect><rect x="81" y="21" width="1" height="1" fill="#0a0810"></rect><rect x="89" y="21" width="1" height="1" fill="#0a0810"></rect><rect x="54" y="22" width="1" height="1" fill="#0a0810"></rect><rect x="55" y="22" width="1" height="1" fill="#7c5f23"></rect><rect x="56" y="22" width="2" height="1" fill="#0a0810"></rect><rect x="61" y="22" width="2" height="1" fill="#0a0810"></rect><rect x="63" y="22" width="1" height="1" fill="#7c5f23"></rect><rect x="64" y="22" width="1" height="1" fill="#0a0810"></rect><rect x="70" y="22" width="1" height="1" fill="#0a0810"></rect><rect x="71" y="22" width="1" height="1" fill="#b8943f"></rect><rect x="72" y="22" width="1" height="1" fill="#e7c873"></rect><rect x="73" y="22" width="1" height="1" fill="#7c5f23"></rect><rect x="74" y="22" width="1" height="1" fill="#0a0810"></rect><rect x="55" y="23" width="1" height="1" fill="#0a0810"></rect><rect x="63" y="23" width="1" height="1" fill="#0a0810"></rect><rect x="70" y="23" width="1" height="1" fill="#0a0810"></rect><rect x="71" y="23" width="1" height="1" fill="#b8943f"></rect><rect x="72" y="23" width="1" height="1" fill="#e7c873"></rect><rect x="73" y="23" width="1" height="1" fill="#7c5f23"></rect><rect x="74" y="23" width="1" height="1" fill="#0a0810"></rect><rect x="70" y="24" width="1" height="1" fill="#0a0810"></rect><rect x="71" y="24" width="1" height="1" fill="#b8943f"></rect><rect x="72" y="24" width="1" height="1" fill="#e7c873"></rect><rect x="73" y="24" width="1" height="1" fill="#7c5f23"></rect><rect x="74" y="24" width="1" height="1" fill="#0a0810"></rect><rect x="70" y="25" width="1" height="1" fill="#0a0810"></rect><rect x="71" y="25" width="1" height="1" fill="#b8943f"></rect><rect x="72" y="25" width="1" height="1" fill="#e7c873"></rect><rect x="73" y="25" width="1" height="1" fill="#7c5f23"></rect><rect x="74" y="25" width="1" height="1" fill="#0a0810"></rect><rect x="70" y="26" width="1" height="1" fill="#0a0810"></rect><rect x="71" y="26" width="1" height="1" fill="#b8943f"></rect><rect x="72" y="26" width="1" height="1" fill="#e7c873"></rect><rect x="73" y="26" width="1" height="1" fill="#7c5f23"></rect><rect x="74" y="26" width="1" height="1" fill="#0a0810"></rect><rect x="70" y="27" width="1" height="1" fill="#0a0810"></rect><rect x="71" y="27" width="1" height="1" fill="#b8943f"></rect><rect x="72" y="27" width="1" height="1" fill="#e7c873"></rect><rect x="73" y="27" width="1" height="1" fill="#7c5f23"></rect><rect x="74" y="27" width="1" height="1" fill="#0a0810"></rect><rect x="70" y="28" width="1" height="1" fill="#0a0810"></rect><rect x="71" y="28" width="1" height="1" fill="#b8943f"></rect><rect x="72" y="28" width="1" height="1" fill="#e7c873"></rect><rect x="73" y="28" width="1" height="1" fill="#7c5f23"></rect><rect x="74" y="28" width="1" height="1" fill="#0a0810"></rect><rect x="70" y="29" width="1" height="1" fill="#0a0810"></rect><rect x="71" y="29" width="1" height="1" fill="#b8943f"></rect><rect x="72" y="29" width="1" height="1" fill="#e7c873"></rect><rect x="73" y="29" width="1" height="1" fill="#7c5f23"></rect><rect x="74" y="29" width="1" height="1" fill="#0a0810"></rect><rect x="70" y="30" width="1" height="1" fill="#0a0810"></rect><rect x="71" y="30" width="1" height="1" fill="#b8943f"></rect><rect x="72" y="30" width="1" height="1" fill="#e7c873"></rect><rect x="73" y="30" width="1" height="1" fill="#7c5f23"></rect><rect x="74" y="30" width="1" height="1" fill="#0a0810"></rect><rect x="70" y="31" width="1" height="1" fill="#0a0810"></rect><rect x="71" y="31" width="1" height="1" fill="#b8943f"></rect><rect x="72" y="31" width="1" height="1" fill="#e7c873"></rect><rect x="73" y="31" width="1" height="1" fill="#7c5f23"></rect><rect x="74" y="31" width="1" height="1" fill="#0a0810"></rect><rect x="70" y="32" width="1" height="1" fill="#0a0810"></rect><rect x="71" y="32" width="1" height="1" fill="#b8943f"></rect><rect x="72" y="32" width="1" height="1" fill="#e7c873"></rect><rect x="73" y="32" width="1" height="1" fill="#7c5f23"></rect><rect x="74" y="32" width="1" height="1" fill="#0a0810"></rect><rect x="70" y="33" width="1" height="1" fill="#0a0810"></rect><rect x="71" y="33" width="1" height="1" fill="#b8943f"></rect><rect x="72" y="33" width="1" height="1" fill="#e7c873"></rect><rect x="73" y="33" width="1" height="1" fill="#7c5f23"></rect><rect x="74" y="33" width="1" height="1" fill="#0a0810"></rect><rect x="70" y="34" width="1" height="1" fill="#0a0810"></rect><rect x="71" y="34" width="1" height="1" fill="#b8943f"></rect><rect x="72" y="34" width="1" height="1" fill="#e7c873"></rect><rect x="73" y="34" width="1" height="1" fill="#7c5f23"></rect><rect x="74" y="34" width="1" height="1" fill="#0a0810"></rect><rect x="58" y="35" width="9" height="1" fill="#0a0810"></rect><rect x="70" y="35" width="1" height="1" fill="#0a0810"></rect><rect x="71" y="35" width="1" height="1" fill="#b8943f"></rect><rect x="72" y="35" width="1" height="1" fill="#e7c873"></rect><rect x="73" y="35" width="1" height="1" fill="#7c5f23"></rect><rect x="74" y="35" width="1" height="1" fill="#0a0810"></rect><rect x="57" y="36" width="1" height="1" fill="#0a0810"></rect><rect x="58" y="36" width="4" height="1" fill="#d8cfe0"></rect><rect x="62" y="36" width="1" height="1" fill="#241a11"></rect><rect x="63" y="36" width="4" height="1" fill="#d8cfe0"></rect><rect x="67" y="36" width="1" height="1" fill="#0a0810"></rect><rect x="70" y="36" width="1" height="1" fill="#0a0810"></rect><rect x="71" y="36" width="1" height="1" fill="#b8943f"></rect><rect x="72" y="36" width="1" height="1" fill="#e7c873"></rect><rect x="73" y="36" width="1" height="1" fill="#7c5f23"></rect><rect x="74" y="36" width="1" height="1" fill="#0a0810"></rect><rect x="57" y="37" width="1" height="1" fill="#0a0810"></rect><rect x="58" y="37" width="1" height="1" fill="#d8cfe0"></rect><rect x="59" y="37" width="3" height="1" fill="#14101e"></rect><rect x="62" y="37" width="2" height="1" fill="#d8cfe0"></rect><rect x="64" y="37" width="3" height="1" fill="#14101e"></rect><rect x="67" y="37" width="1" height="1" fill="#0a0810"></rect><rect x="70" y="37" width="1" height="1" fill="#0a0810"></rect><rect x="71" y="37" width="1" height="1" fill="#b8943f"></rect><rect x="72" y="37" width="1" height="1" fill="#e7c873"></rect><rect x="73" y="37" width="1" height="1" fill="#7c5f23"></rect><rect x="74" y="37" width="1" height="1" fill="#0a0810"></rect><rect x="56" y="38" width="2" height="1" fill="#0a0810"></rect><rect x="58" y="38" width="9" height="1" fill="#d8cfe0"></rect><rect x="67" y="38" width="3" height="1" fill="#0a0810"></rect><rect x="70" y="38" width="5" height="1" fill="#7c5f23"></rect><rect x="75" y="38" width="14" height="1" fill="#0a0810"></rect><rect x="55" y="39" width="1" height="1" fill="#0a0810"></rect><rect x="56" y="39" width="2" height="1" fill="#7a6048"></rect><rect x="58" y="39" width="1" height="1" fill="#36291c"></rect><rect x="59" y="39" width="6" height="1" fill="#50402e"></rect><rect x="65" y="39" width="1" height="1" fill="#36291c"></rect><rect x="66" y="39" width="4" height="1" fill="#50402e"></rect><rect x="70" y="39" width="5" height="1" fill="#7c5f23"></rect><rect x="75" y="39" width="4" height="1" fill="#50402e"></rect><rect x="79" y="39" width="1" height="1" fill="#36291c"></rect><rect x="80" y="39" width="6" height="1" fill="#50402e"></rect><rect x="86" y="39" width="1" height="1" fill="#36291c"></rect><rect x="87" y="39" width="2" height="1" fill="#241a11"></rect><rect x="89" y="39" width="1" height="1" fill="#0a0810"></rect><rect x="55" y="40" width="1" height="1" fill="#0a0810"></rect><rect x="56" y="40" width="1" height="1" fill="#7a6048"></rect><rect x="57" y="40" width="1" height="1" fill="#36291c"></rect><rect x="58" y="40" width="6" height="1" fill="#50402e"></rect><rect x="64" y="40" width="1" height="1" fill="#36291c"></rect><rect x="65" y="40" width="6" height="1" fill="#50402e"></rect><rect x="71" y="40" width="1" height="1" fill="#36291c"></rect><rect x="72" y="40" width="6" height="1" fill="#50402e"></rect><rect x="78" y="40" width="1" height="1" fill="#36291c"></rect><rect x="79" y="40" width="6" height="1" fill="#50402e"></rect><rect x="85" y="40" width="1" height="1" fill="#36291c"></rect><rect x="86" y="40" width="1" height="1" fill="#50402e"></rect><rect x="87" y="40" width="2" height="1" fill="#241a11"></rect><rect x="89" y="40" width="1" height="1" fill="#0a0810"></rect><rect x="55" y="41" width="1" height="1" fill="#0a0810"></rect><rect x="56" y="41" width="1" height="1" fill="#36291c"></rect><rect x="57" y="41" width="1" height="1" fill="#7a6048"></rect><rect x="58" y="41" width="5" height="1" fill="#50402e"></rect><rect x="63" y="41" width="1" height="1" fill="#36291c"></rect><rect x="64" y="41" width="6" height="1" fill="#50402e"></rect><rect x="70" y="41" width="1" height="1" fill="#36291c"></rect><rect x="71" y="41" width="6" height="1" fill="#50402e"></rect><rect x="77" y="41" width="1" height="1" fill="#36291c"></rect><rect x="78" y="41" width="6" height="1" fill="#50402e"></rect><rect x="84" y="41" width="1" height="1" fill="#36291c"></rect><rect x="85" y="41" width="2" height="1" fill="#50402e"></rect><rect x="87" y="41" width="2" height="1" fill="#241a11"></rect><rect x="89" y="41" width="1" height="1" fill="#0a0810"></rect><rect x="55" y="42" width="1" height="1" fill="#0a0810"></rect><rect x="56" y="42" width="2" height="1" fill="#7a6048"></rect><rect x="58" y="42" width="4" height="1" fill="#50402e"></rect><rect x="62" y="42" width="1" height="1" fill="#36291c"></rect><rect x="63" y="42" width="6" height="1" fill="#50402e"></rect><rect x="69" y="42" width="1" height="1" fill="#36291c"></rect><rect x="70" y="42" width="6" height="1" fill="#50402e"></rect><rect x="76" y="42" width="1" height="1" fill="#36291c"></rect><rect x="77" y="42" width="6" height="1" fill="#50402e"></rect><rect x="83" y="42" width="1" height="1" fill="#36291c"></rect><rect x="84" y="42" width="3" height="1" fill="#50402e"></rect><rect x="87" y="42" width="2" height="1" fill="#241a11"></rect><rect x="89" y="42" width="1" height="1" fill="#0a0810"></rect><rect x="55" y="43" width="1" height="1" fill="#0a0810"></rect><rect x="56" y="43" width="2" height="1" fill="#7a6048"></rect><rect x="58" y="43" width="3" height="1" fill="#50402e"></rect><rect x="61" y="43" width="1" height="1" fill="#36291c"></rect><rect x="62" y="43" width="6" height="1" fill="#50402e"></rect><rect x="68" y="43" width="1" height="1" fill="#36291c"></rect><rect x="69" y="43" width="6" height="1" fill="#50402e"></rect><rect x="75" y="43" width="1" height="1" fill="#36291c"></rect><rect x="76" y="43" width="6" height="1" fill="#50402e"></rect><rect x="82" y="43" width="1" height="1" fill="#36291c"></rect><rect x="83" y="43" width="4" height="1" fill="#50402e"></rect><rect x="87" y="43" width="2" height="1" fill="#241a11"></rect><rect x="89" y="43" width="1" height="1" fill="#0a0810"></rect><rect x="55" y="44" width="1" height="1" fill="#0a0810"></rect><rect x="56" y="44" width="4" height="1" fill="#241a11"></rect><rect x="60" y="44" width="1" height="1" fill="#36291c"></rect><rect x="61" y="44" width="6" height="1" fill="#241a11"></rect><rect x="67" y="44" width="1" height="1" fill="#36291c"></rect><rect x="68" y="44" width="6" height="1" fill="#241a11"></rect><rect x="74" y="44" width="1" height="1" fill="#36291c"></rect><rect x="75" y="44" width="6" height="1" fill="#241a11"></rect><rect x="81" y="44" width="1" height="1" fill="#36291c"></rect><rect x="82" y="44" width="6" height="1" fill="#241a11"></rect><rect x="88" y="44" width="1" height="1" fill="#36291c"></rect><rect x="89" y="44" width="1" height="1" fill="#0a0810"></rect><rect x="55" y="45" width="1" height="1" fill="#0a0810"></rect><rect x="56" y="45" width="3" height="1" fill="#241a11"></rect><rect x="59" y="45" width="1" height="1" fill="#36291c"></rect><rect x="60" y="45" width="6" height="1" fill="#241a11"></rect><rect x="66" y="45" width="1" height="1" fill="#36291c"></rect><rect x="67" y="45" width="6" height="1" fill="#241a11"></rect><rect x="73" y="45" width="1" height="1" fill="#36291c"></rect><rect x="74" y="45" width="6" height="1" fill="#241a11"></rect><rect x="80" y="45" width="1" height="1" fill="#36291c"></rect><rect x="81" y="45" width="6" height="1" fill="#241a11"></rect><rect x="87" y="45" width="1" height="1" fill="#36291c"></rect><rect x="88" y="45" width="1" height="1" fill="#241a11"></rect><rect x="89" y="45" width="1" height="1" fill="#0a0810"></rect><rect x="56" y="46" width="33" height="1" fill="#0a0810"></rect></svg>