<svg xmlns="http://www.w3.org/2000/svg" width="128" height="40" viewBox="0 0 128 40" shape-rendering="crispEdges"><rect x="16" y="9" width="1" height="1" fill="#0a0810"></rect><rect x="14" y="10" width="2" height="1" fill="#0a0810"></rect><rect x="16" y="10" width="1" height="1" fill="#211c30"></rect><rect x="17" y="10" width="2" height="1" fill="#0a0810"></rect><rect x="13" y="11" width="1" height="1" fill="#0a0810"></rect><rect x="14" y="11" width="5" height="1" fill="#211c30"></rect><rect x="19" y="11" width="1" height="1" fill="#0a0810"></rect><rect x="12" y="12" width="1" height="1" fill="#0a0810"></rect><rect x="13" y="12" width="1" height="1" fill="#211c30"></rect><rect x="14" y="12" width="4" height="1" fill="#14101e"></rect><rect x="18" y="12" width="3" height="1" fill="#0a0810"></rect><rect x="11" y="13" width="1" height="1" fill="#0a0810"></rect><rect x="12" y="13" width="1" height="1" fill="#211c30"></rect><rect x="13" y="13" width="6" height="1" fill="#14101e"></rect><rect x="19" y="13" width="3" height="1" fill="#0a0810"></rect><rect x="11" y="14" width="1" height="1" fill="#0a0810"></rect><rect x="12" y="14" width="1" height="1" fill="#211c30"></rect><rect x="13" y="14" width="1" height="1" fill="#14101e"></rect><rect x="14" y="14" width="8" height="1" fill="#0a0810"></rect><rect x="10" y="15" width="1" height="1" fill="#0a0810"></rect><rect x="11" y="15" width="1" height="1" fill="#211c30"></rect><rect x="12" y="15" width="2" height="1" fill="#14101e"></rect><rect x="14" y="15" width="5" height="1" fill="#0a0810"></rect><rect x="19" y="15" width="1" height="1" fill="#14101e"></rect><rect x="20" y="15" width="3" height="1" fill="#0a0810"></rect><rect x="10" y="16" width="1" height="1" fill="#0a0810"></rect><rect x="11" y="16" width="1" height="1" fill="#211c30"></rect><rect x="12" y="16" width="2" height="1" fill="#14101e"></rect><rect x="14" y="16" width="1" height="1" fill="#0a0810"></rect><rect x="15" y="16" width="1" height="1" fill="#fcd34d"></rect><rect x="16" y="16" width="1" height="1" fill="#0a0810"></rect><rect x="17" y="16" width="1" height="1" fill="#fcd34d"></rect><rect x="18" y="16" width="1" height="1" fill="#0a0810"></rect><rect x="19" y="16" width="1" height="1" fill="#14101e"></rect><rect x="20" y="16" width="3" height="1" fill="#0a0810"></rect><rect x="10" y="17" width="1" height="1" fill="#0a0810"></rect><rect x="11" y="17" width="1" height="1" fill="#211c30"></rect><rect x="12" y="17" width="2" height="1" fill="#14101e"></rect><rect x="14" y="17" width="5" height="1" fill="#0a0810"></rect><rect x="19" y="17" width="1" height="1" fill="#14101e"></rect><rect x="20" y="17" width="3" height="1" fill="#0a0810"></rect><rect x="10" y="18" width="1" height="1" fill="#0a0810"></rect><rect x="11" y="18" width="1" height="1" fill="#211c30"></rect><rect x="12" y="18" width="2" height="1" fill="#14101e"></rect><rect x="14" y="18" width="5" height="1" fill="#0a0810"></rect><rect x="19" y="18" width="1" height="1" fill="#14101e"></rect><rect x="20" y="18" width="3" height="1" fill="#0a0810"></rect><rect x="10" y="19" width="1" height="1" fill="#0a0810"></rect><rect x="11" y="19" width="1" height="1" fill="#211c30"></rect><rect x="12" y="19" width="8" height="1" fill="#14101e"></rect><rect x="20" y="19" width="3" height="1" fill="#0a0810"></rect><rect x="11" y="20" width="1" height="1" fill="#0a0810"></rect><rect x="12" y="20" width="2" height="1" fill="#14101e"></rect><rect x="14" y="20" width="8" height="1" fill="#0a0810"></rect><rect x="11" y="21" width="1" height="1" fill="#0a0810"></rect><rect x="12" y="21" width="2" height="1" fill="#14101e"></rect><rect x="14" y="21" width="8" height="1" fill="#0a0810"></rect><rect x="10" y="22" width="1" height="1" fill="#0a0810"></rect><rect x="11" y="22" width="1" height="1" fill="#211c30"></rect><rect x="12" y="22" width="1" height="1" fill="#14101e"></rect><rect x="13" y="22" width="8" height="1" fill="#0a0810"></rect><rect x="21" y="22" width="1" height="1" fill="#211c30"></rect><rect x="22" y="22" width="1" height="1" fill="#0a0810"></rect><rect x="10" y="23" width="1" height="1" fill="#0a0810"></rect><rect x="11" y="23" width="2" height="1" fill="#14101e"></rect><rect x="13" y="23" width="10" height="1" fill="#0a0810"></rect><rect x="10" y="24" width="1" height="1" fill="#0a0810"></rect><rect x="11" y="24" width="2" height="1" fill="#14101e"></rect><rect x="13" y="24" width="10" height="1" fill="#0a0810"></rect><rect x="10" y="25" width="1" height="1" fill="#0a0810"></rect><rect x="11" y="25" width="2" height="1" fill="#14101e"></rect><rect x="13" y="25" width="10" height="1" fill="#0a0810"></rect><rect x="10" y="26" width="1" height="1" fill="#0a0810"></rect><rect x="11" y="26" width="2" height="1" fill="#14101e"></rect><rect x="13" y="26" width="10" height="1" fill="#0a0810"></rect><rect x="10" y="27" width="1" height="1" fill="#0a0810"></rect><rect x="11" y="27" width="2" height="1" fill="#14101e"></rect><rect x="13" y="27" width="10" height="1" fill="#0a0810"></rect><rect x="9" y="28" width="1" height="1" fill="#0a0810"></rect><rect x="10" y="28" width="2" height="1" fill="#14101e"></rect><rect x="12" y="28" width="12" height="1" fill="#0a0810"></rect><rect x="9" y="29" width="1" height="1" fill="#0a0810"></rect><rect x="10" y="29" width="2" height="1" fill="#14101e"></rect><rect x="12" y="29" width="12" height="1" fill="#0a0810"></rect><rect x="9" y="30" width="1" height="1" fill="#0a0810"></rect><rect x="10" y="30" width="2" height="1" fill="#14101e"></rect><rect x="12" y="30" width="12" height="1" fill="#0a0810"></rect><rect x="9" y="31" width="1" height="1" fill="#0a0810"></rect><rect x="10" y="31" width="2" height="1" fill="#14101e"></rect><rect x="12" y="31" width="12" height="1" fill="#0a0810"></rect><rect x="9" y="32" width="1" height="1" fill="#0a0810"></rect><rect x="10" y="32" width="2" height="1" fill="#14101e"></rect><rect x="12" y="32" width="12" height="1" fill="#0a0810"></rect><rect x="9" y="33" width="1" height="1" fill="#0a0810"></rect><rect x="10" y="33" width="2" height="1" fill="#14101e"></rect><rect x="12" y="33" width="12" height="1" fill="#0a0810"></rect><rect x="8" y="34" width="1" height="1" fill="#0a0810"></rect><rect x="9" y="34" width="2" height="1" fill="#14101e"></rect><rect x="11" y="34" width="14" height="1" fill="#0a0810"></rect><rect x="8" y="35" width="1" height="1" fill="#0a0810"></rect><rect x="9" y="35" width="2" height="1" fill="#14101e"></rect><rect x="11" y="35" width="14" height="1" fill="#0a0810"></rect><rect x="8" y="36" width="1" height="1" fill="#0a0810"></rect><rect x="9" y="36" width="2" height="1" fill="#14101e"></rect><rect x="11" y="36" width="14" height="1" fill="#0a0810"></rect><rect x="8" y="37" width="17" height="1" fill="#0a0810"></rect><rect x="9" y="38" width="15" height="1" fill="#0a0810"></rect><rect x="48" y="10" width="1" height="1" fill="#0a0810"></rect><rect x="46" y="11" width="2" height="1" fill="#0a0810"></rect><rect x="48" y="11" width="1" height="1" fill="#211c30"></rect><rect x="49" y="11" width="2" height="1" fill="#0a0810"></rect><rect x="45" y="12" width="1" height="1" fill="#0a0810"></rect><rect x="46" y="12" width="5" height="1" fill="#211c30"></rect><rect x="51" y="12" width="1" height="1" fill="#0a0810"></rect><rect x="44" y="13" width="1" height="1" fill="#0a0810"></rect><rect x="45" y="13" width="1" height="1" fill="#211c30"></rect><rect x="46" y="13" width="4" height="1" fill="#14101e"></rect><rect x="50" y="13" width="3" height="1" fill="#0a0810"></rect><rect x="43" y="14" width="1" height="1" fill="#0a0810"></rect><rect x="44" y="14" width="1" height="1" fill="#211c30"></rect><rect x="45" y="14" width="6" height="1" fill="#14101e"></rect><rect x="51" y="14" width="3" height="1" fill="#0a0810"></rect><rect x="43" y="15" width="1" height="1" fill="#0a0810"></rect><rect x="44" y="15" width="1" height="1" fill="#211c30"></rect><rect x="45" y="15" width="1" height="1" fill="#14101e"></rect><rect x="46" y="15" width="8" height="1" fill="#0a0810"></rect><rect x="42" y="16" width="1" height="1" fill="#0a0810"></rect><rect x="43" y="16" width="1" height="1" fill="#211c30"></rect><rect x="44" y="16" width="2" height="1" fill="#14101e"></rect><rect x="46" y="16" width="5" height="1" fill="#0a0810"></rect><rect x="51" y="16" width="1" height="1" fill="#14101e"></rect><rect x="52" y="16" width="3" height="1" fill="#0a0810"></rect><rect x="42" y="17" width="1" height="1" fill="#0a0810"></rect><rect x="43" y="17" width="1" height="1" fill="#211c30"></rect><rect x="44" y="17" width="2" height="1" fill="#14101e"></rect><rect x="46" y="17" width="1" height="1" fill="#0a0810"></rect><rect x="47" y="17" width="1" height="1" fill="#b45309"></rect><rect x="48" y="17" width="1" height="1" fill="#0a0810"></rect><rect x="49" y="17" width="1" height="1" fill="#b45309"></rect><rect x="50" y="17" width="1" height="1" fill="#0a0810"></rect><rect x="51" y="17" width="1" height="1" fill="#14101e"></rect><rect x="52" y="17" width="3" height="1" fill="#0a0810"></rect><rect x="42" y="18" width="1" height="1" fill="#0a0810"></rect><rect x="43" y="18" width="1" height="1" fill="#211c30"></rect><rect x="44" y="18" width="2" height="1" fill="#14101e"></rect><rect x="46" y="18" width="5" height="1" fill="#0a0810"></rect><rect x="51" y="18" width="1" height="1" fill="#14101e"></rect><rect x="52" y="18" width="3" height="1" fill="#0a0810"></rect><rect x="42" y="19" width="1" height="1" fill="#0a0810"></rect><rect x="43" y="19" width="1" height="1" fill="#211c30"></rect><rect x="44" y="19" width="2" height="1" fill="#14101e"></rect><rect x="46" y="19" width="5" height="1" fill="#0a0810"></rect><rect x="51" y="19" width="1" height="1" fill="#14101e"></rect><rect x="52" y="19" width="3" height="1" fill="#0a0810"></rect><rect x="42" y="20" width="1" height="1" fill="#0a0810"></rect><rect x="43" y="20" width="1" height="1" fill="#211c30"></rect><rect x="44" y="20" width="8" height="1" fill="#14101e"></rect><rect x="52" y="20" width="3" height="1" fill="#0a0810"></rect><rect x="43" y="21" width="1" height="1" fill="#0a0810"></rect><rect x="44" y="21" width="2" height="1" fill="#14101e"></rect><rect x="46" y="21" width="8" height="1" fill="#0a0810"></rect><rect x="43" y="22" width="1" height="1" fill="#0a0810"></rect><rect x="44" y="22" width="2" height="1" fill="#14101e"></rect><rect x="46" y="22" width="8" height="1" fill="#0a0810"></rect><rect x="42" y="23" width="1" height="1" fill="#0a0810"></rect><rect x="43" y="23" width="1" height="1" fill="#211c30"></rect><rect x="44" y="23" width="1" height="1" fill="#14101e"></rect><rect x="45" y="23" width="8" height="1" fill="#0a0810"></rect><rect x="53" y="23" width="1" height="1" fill="#211c30"></rect><rect x="54" y="23" width="1" height="1" fill="#0a0810"></rect><rect x="42" y="24" width="1" height="1" fill="#0a0810"></rect><rect x="43" y="24" width="2" height="1" fill="#14101e"></rect><rect x="45" y="24" width="10" height="1" fill="#0a0810"></rect><rect x="42" y="25" width="1" height="1" fill="#0a0810"></rect><rect x="43" y="25" width="2" height="1" fill="#14101e"></rect><rect x="45" y="25" width="10" height="1" fill="#0a0810"></rect><rect x="42" y="26" width="1" height="1" fill="#0a0810"></rect><rect x="43" y="26" width="2" height="1" fill="#14101e"></rect><rect x="45" y="26" width="10" height="1" fill="#0a0810"></rect><rect x="42" y="27" width="1" height="1" fill="#0a0810"></rect><rect x="43" y="27" width="2" height="1" fill="#14101e"></rect><rect x="45" y="27" width="10" height="1" fill="#0a0810"></rect><rect x="42" y="28" width="1" height="1" fill="#0a0810"></rect><rect x="43" y="28" width="2" height="1" fill="#14101e"></rect><rect x="45" y="28" width="10" height="1" fill="#0a0810"></rect><rect x="41" y="29" width="1" height="1" fill="#0a0810"></rect><rect x="42" y="29" width="2" height="1" fill="#14101e"></rect><rect x="44" y="29" width="12" height="1" fill="#0a0810"></rect><rect x="41" y="30" width="1" height="1" fill="#0a0810"></rect><rect x="42" y="30" width="2" height="1" fill="#14101e"></rect><rect x="44" y="30" width="12" height="1" fill="#0a0810"></rect><rect x="41" y="31" width="1" height="1" fill="#0a0810"></rect><rect x="42" y="31" width="2" height="1" fill="#14101e"></rect><rect x="44" y="31" width="12" height="1" fill="#0a0810"></rect><rect x="41" y="32" width="1" height="1" fill="#0a0810"></rect><rect x="42" y="32" width="2" height="1" fill="#14101e"></rect><rect x="44" y="32" width="12" height="1" fill="#0a0810"></rect><rect x="41" y="33" width="1" height="1" fill="#0a0810"></rect><rect x="42" y="33" width="2" height="1" fill="#14101e"></rect><rect x="44" y="33" width="12" height="1" fill="#0a0810"></rect><rect x="41" y="34" width="1" height="1" fill="#0a0810"></rect><rect x="42" y="34" width="2" height="1" fill="#14101e"></rect><rect x="44" y="34" width="12" height="1" fill="#0a0810"></rect><rect x="40" y="35" width="1" height="1" fill="#0a0810"></rect><rect x="41" y="35" width="2" height="1" fill="#14101e"></rect><rect x="43" y="35" width="14" height="1" fill="#0a0810"></rect><rect x="40" y="36" width="1" height="1" fill="#0a0810"></rect><rect x="41" y="36" width="2" height="1" fill="#14101e"></rect><rect x="43" y="36" width="14" height="1" fill="#0a0810"></rect><rect x="40" y="37" width="17" height="1" fill="#0a0810"></rect><rect x="41" y="38" width="15" height="1" fill="#0a0810"></rect><rect x="80" y="9" width="1" height="1" fill="#0a0810"></rect><rect x="78" y="10" width="2" height="1" fill="#0a0810"></rect><rect x="80" y="10" width="1" height="1" fill="#211c30"></rect><rect x="81" y="10" width="2" height="1" fill="#0a0810"></rect><rect x="77" y="11" width="1" height="1" fill="#0a0810"></rect><rect x="78" y="11" width="5" height="1" fill="#211c30"></rect><rect x="83" y="11" width="1" height="1" fill="#0a0810"></rect><rect x="76" y="12" width="1" height="1" fill="#0a0810"></rect><rect x="77" y="12" width="1" height="1" fill="#211c30"></rect><rect x="78" y="12" width="4" height="1" fill="#14101e"></rect><rect x="82" y="12" width="3" height="1" fill="#0a0810"></rect><rect x="75" y="13" width="1" height="1" fill="#0a0810"></rect><rect x="76" y="13" width="1" height="1" fill="#211c30"></rect><rect x="77" y="13" width="6" height="1" fill="#14101e"></rect><rect x="83" y="13" width="3" height="1" fill="#0a0810"></rect><rect x="75" y="14" width="1" height="1" fill="#0a0810"></rect><rect x="76" y="14" width="1" height="1" fill="#211c30"></rect><rect x="77" y="14" width="1" height="1" fill="#14101e"></rect><rect x="78" y="14" width="8" height="1" fill="#0a0810"></rect><rect x="74" y="15" width="1" height="1" fill="#0a0810"></rect><rect x="75" y="15" width="1" height="1" fill="#211c30"></rect><rect x="76" y="15" width="2" height="1" fill="#14101e"></rect><rect x="78" y="15" width="5" height="1" fill="#0a0810"></rect><rect x="83" y="15" width="1" height="1" fill="#14101e"></rect><rect x="84" y="15" width="3" height="1" fill="#0a0810"></rect><rect x="74" y="16" width="1" height="1" fill="#0a0810"></rect><rect x="75" y="16" width="1" height="1" fill="#211c30"></rect><rect x="76" y="16" width="2" height="1" fill="#14101e"></rect><rect x="78" y="16" width="1" height="1" fill="#0a0810"></rect><rect x="79" y="16" width="1" height="1" fill="#fcd34d"></rect><rect x="80" y="16" width="1" height="1" fill="#0a0810"></rect><rect x="81" y="16" width="1" height="1" fill="#fcd34d"></rect><rect x="82" y="16" width="1" height="1" fill="#0a0810"></rect><rect x="83" y="16" width="1" height="1" fill="#14101e"></rect><rect x="84" y="16" width="3" height="1" fill="#0a0810"></rect><rect x="74" y="17" width="1" height="1" fill="#0a0810"></rect><rect x="75" y="17" width="1" height="1" fill="#211c30"></rect><rect x="76" y="17" width="2" height="1" fill="#14101e"></rect><rect x="78" y="17" width="5" height="1" fill="#0a0810"></rect><rect x="83" y="17" width="1" height="1" fill="#14101e"></rect><rect x="84" y="17" width="3" height="1" fill="#0a0810"></rect><rect x="74" y="18" width="1" height="1" fill="#0a0810"></rect><rect x="75" y="18" width="1" height="1" fill="#211c30"></rect><rect x="76" y="18" width="2" height="1" fill="#14101e"></rect><rect x="78" y="18" width="5" height="1" fill="#0a0810"></rect><rect x="83" y="18" width="1" height="1" fill="#14101e"></rect><rect x="84" y="18" width="3" height="1" fill="#0a0810"></rect><rect x="74" y="19" width="1" height="1" fill="#0a0810"></rect><rect x="75" y="19" width="1" height="1" fill="#211c30"></rect><rect x="76" y="19" width="8" height="1" fill="#14101e"></rect><rect x="84" y="19" width="3" height="1" fill="#0a0810"></rect><rect x="75" y="20" width="1" height="1" fill="#0a0810"></rect><rect x="76" y="20" width="2" height="1" fill="#14101e"></rect><rect x="78" y="20" width="8" height="1" fill="#0a0810"></rect><rect x="75" y="21" width="1" height="1" fill="#0a0810"></rect><rect x="76" y="21" width="2" height="1" fill="#14101e"></rect><rect x="78" y="21" width="8" height="1" fill="#0a0810"></rect><rect x="74" y="22" width="1" height="1" fill="#0a0810"></rect><rect x="75" y="22" width="1" height="1" fill="#211c30"></rect><rect x="76" y="22" width="1" height="1" fill="#14101e"></rect><rect x="77" y="22" width="8" height="1" fill="#0a0810"></rect><rect x="85" y="22" width="1" height="1" fill="#211c30"></rect><rect x="86" y="22" width="1" height="1" fill="#0a0810"></rect><rect x="74" y="23" width="1" height="1" fill="#0a0810"></rect><rect x="75" y="23" width="2" height="1" fill="#14101e"></rect><rect x="77" y="23" width="10" height="1" fill="#0a0810"></rect><rect x="74" y="24" width="1" height="1" fill="#0a0810"></rect><rect x="75" y="24" width="2" height="1" fill="#14101e"></rect><rect x="77" y="24" width="10" height="1" fill="#0a0810"></rect><rect x="74" y="25" width="1" height="1" fill="#0a0810"></rect><rect x="75" y="25" width="2" height="1" fill="#14101e"></rect><rect x="77" y="25" width="10" height="1" fill="#0a0810"></rect><rect x="74" y="26" width="1" height="1" fill="#0a0810"></rect><rect x="75" y="26" width="2" height="1" fill="#14101e"></rect><rect x="77" y="26" width="10" height="1" fill="#0a0810"></rect><rect x="74" y="27" width="1" height="1" fill="#0a0810"></rect><rect x="75" y="27" width="2" height="1" fill="#14101e"></rect><rect x="77" y="27" width="10" height="1" fill="#0a0810"></rect><rect x="73" y="28" width="1" height="1" fill="#0a0810"></rect><rect x="74" y="28" width="2" height="1" fill="#14101e"></rect><rect x="76" y="28" width="12" height="1" fill="#0a0810"></rect><rect x="73" y="29" width="1" height="1" fill="#0a0810"></rect><rect x="74" y="29" width="2" height="1" fill="#14101e"></rect><rect x="76" y="29" width="12" height="1" fill="#0a0810"></rect><rect x="73" y="30" width="1" height="1" fill="#0a0810"></rect><rect x="74" y="30" width="2" height="1" fill="#14101e"></rect><rect x="76" y="30" width="12" height="1" fill="#0a0810"></rect><rect x="73" y="31" width="1" height="1" fill="#0a0810"></rect><rect x="74" y="31" width="2" height="1" fill="#14101e"></rect><rect x="76" y="31" width="12" height="1" fill="#0a0810"></rect><rect x="73" y="32" width="1" height="1" fill="#0a0810"></rect><rect x="74" y="32" width="2" height="1" fill="#14101e"></rect><rect x="76" y="32" width="12" height="1" fill="#0a0810"></rect><rect x="73" y="33" width="1" height="1" fill="#0a0810"></rect><rect x="74" y="33" width="2" height="1" fill="#14101e"></rect><rect x="76" y="33" width="12" height="1" fill="#0a0810"></rect><rect x="72" y="34" width="1" height="1" fill="#0a0810"></rect><rect x="73" y="34" width="2" height="1" fill="#14101e"></rect><rect x="75" y="34" width="14" height="1" fill="#0a0810"></rect><rect x="72" y="35" width="1" height="1" fill="#0a0810"></rect><rect x="73" y="35" width="2" height="1" fill="#14101e"></rect><rect x="75" y="35" width="14" height="1" fill="#0a0810"></rect><rect x="72" y="36" width="1" height="1" fill="#0a0810"></rect><rect x="73" y="36" width="2" height="1" fill="#14101e"></rect><rect x="75" y="36" width="14" height="1" fill="#0a0810"></rect><rect x="72" y="37" width="17" height="1" fill="#0a0810"></rect><rect x="73" y="38" width="15" height="1" fill="#0a0810"></rect><rect x="112" y="9" width="1" height="1" fill="#0a0810"></rect><rect x="110" y="10" width="2" height="1" fill="#0a0810"></rect><rect x="112" y="10" width="1" height="1" fill="#211c30"></rect><rect x="113" y="10" width="2" height="1" fill="#0a0810"></rect><rect x="109" y="11" width="1" height="1" fill="#0a0810"></rect><rect x="110" y="11" width="5" height="1" fill="#211c30"></rect><rect x="115" y="11" width="4" height="1" fill="#0a0810"></rect><rect x="108" y="12" width="1" height="1" fill="#0a0810"></rect><rect x="109" y="12" width="1" height="1" fill="#211c30"></rect><rect x="110" y="12" width="4" height="1" fill="#14101e"></rect><rect x="114" y="12" width="2" height="1" fill="#0a0810"></rect><rect x="116" y="12" width="3" height="1" fill="#322b46"></rect><rect x="119" y="12" width="1" height="1" fill="#0a0810"></rect><rect x="107" y="13" width="1" height="1" fill="#0a0810"></rect><rect x="108" y="13" width="1" height="1" fill="#211c30"></rect><rect x="109" y="13" width="6" height="1" fill="#14101e"></rect><rect x="115" y="13" width="1" height="1" fill="#0a0810"></rect><rect x="116" y="13" width="3" height="1" fill="#322b46"></rect><rect x="119" y="13" width="1" height="1" fill="#0a0810"></rect><rect x="107" y="14" width="1" height="1" fill="#0a0810"></rect><rect x="108" y="14" width="1" height="1" fill="#211c30"></rect><rect x="109" y="14" width="1" height="1" fill="#14101e"></rect><rect x="110" y="14" width="6" height="1" fill="#0a0810"></rect><rect x="116" y="14" width="3" height="1" fill="#322b46"></rect><rect x="119" y="14" width="1" height="1" fill="#0a0810"></rect><rect x="106" y="15" width="1" height="1" fill="#0a0810"></rect><rect x="107" y="15" width="1" height="1" fill="#211c30"></rect><rect x="108" y="15" width="2" height="1" fill="#14101e"></rect><rect x="110" y="15" width="5" height="1" fill="#0a0810"></rect><rect x="115" y="15" width="1" height="1" fill="#14101e"></rect><rect x="116" y="15" width="1" height="1" fill="#0a0810"></rect><rect x="117" y="15" width="1" height="1" fill="#211c30"></rect><rect x="118" y="15" width="1" height="1" fill="#0a0810"></rect><rect x="106" y="16" width="1" height="1" fill="#0a0810"></rect><rect x="107" y="16" width="1" height="1" fill="#211c30"></rect><rect x="108" y="16" width="2" height="1" fill="#14101e"></rect><rect x="110" y="16" width="1" height="1" fill="#0a0810"></rect><rect x="111" y="16" width="1" height="1" fill="#fcd34d"></rect><rect x="112" y="16" width="1" height="1" fill="#0a0810"></rect><rect x="113" y="16" width="1" height="1" fill="#fcd34d"></rect><rect x="114" y="16" width="1" height="1" fill="#0a0810"></rect><rect x="115" y="16" width="1" height="1" fill="#14101e"></rect><rect x="116" y="16" width="1" height="1" fill="#0a0810"></rect><rect x="117" y="16" width="1" height="1" fill="#211c30"></rect><rect x="118" y="16" width="1" height="1" fill="#0a0810"></rect><rect x="106" y="17" width="1" height="1" fill="#0a0810"></rect><rect x="107" y="17" width="1" height="1" fill="#211c30"></rect><rect x="108" y="17" width="2" height="1" fill="#14101e"></rect><rect x="110" y="17" width="5" height="1" fill="#0a0810"></rect><rect x="115" y="17" width="1" height="1" fill="#14101e"></rect><rect x="116" y="17" width="1" height="1" fill="#0a0810"></rect><rect x="117" y="17" width="1" height="1" fill="#211c30"></rect><rect x="118" y="17" width="1" height="1" fill="#0a0810"></rect><rect x="106" y="18" width="1" height="1" fill="#0a0810"></rect><rect x="107" y="18" width="1" height="1" fill="#211c30"></rect><rect x="108" y="18" width="2" height="1" fill="#14101e"></rect><rect x="110" y="18" width="5" height="1" fill="#0a0810"></rect><rect x="115" y="18" width="1" height="1" fill="#14101e"></rect><rect x="116" y="18" width="1" height="1" fill="#0a0810"></rect><rect x="117" y="18" width="1" height="1" fill="#211c30"></rect><rect x="118" y="18" width="1" height="1" fill="#0a0810"></rect><rect x="106" y="19" width="1" height="1" fill="#0a0810"></rect><rect x="107" y="19" width="1" height="1" fill="#211c30"></rect><rect x="108" y="19" width="8" height="1" fill="#14101e"></rect><rect x="116" y="19" width="1" height="1" fill="#0a0810"></rect><rect x="117" y="19" width="1" height="1" fill="#211c30"></rect><rect x="118" y="19" width="1" height="1" fill="#0a0810"></rect><rect x="107" y="20" width="1" height="1" fill="#0a0810"></rect><rect x="108" y="20" width="2" height="1" fill="#14101e"></rect><rect x="110" y="20" width="7" height="1" fill="#0a0810"></rect><rect x="117" y="20" width="1" height="1" fill="#211c30"></rect><rect x="118" y="20" width="1" height="1" fill="#0a0810"></rect><rect x="107" y="21" width="1" height="1" fill="#0a0810"></rect><rect x="108" y="21" width="2" height="1" fill="#14101e"></rect><rect x="110" y="21" width="7" height="1" fill="#0a0810"></rect><rect x="117" y="21" width="1" height="1" fill="#211c30"></rect><rect x="118" y="21" width="1" height="1" fill="#0a0810"></rect><rect x="106" y="22" width="1" height="1" fill="#0a0810"></rect><rect x="107" y="22" width="2" height="1" fill="#14101e"></rect><rect x="109" y="22" width="10" height="1" fill="#0a0810"></rect><rect x="106" y="23" width="1" height="1" fill="#0a0810"></rect><rect x="107" y="23" width="2" height="1" fill="#14101e"></rect><rect x="109" y="23" width="10" height="1" fill="#0a0810"></rect><rect x="106" y="24" width="1" height="1" fill="#0a0810"></rect><rect x="107" y="24" width="2" height="1" fill="#14101e"></rect><rect x="109" y="24" width="10" height="1" fill="#0a0810"></rect><rect x="106" y="25" width="1" height="1" fill="#0a0810"></rect><rect x="107" y="25" width="2" height="1" fill="#14101e"></rect><rect x="109" y="25" width="10" height="1" fill="#0a0810"></rect><rect x="106" y="26" width="1" height="1" fill="#0a0810"></rect><rect x="107" y="26" width="2" height="1" fill="#14101e"></rect><rect x="109" y="26" width="10" height="1" fill="#0a0810"></rect><rect x="106" y="27" width="1" height="1" fill="#0a0810"></rect><rect x="107" y="27" width="2" height="1" fill="#14101e"></rect><rect x="109" y="27" width="10" height="1" fill="#0a0810"></rect><rect x="105" y="28" width="1" height="1" fill="#0a0810"></rect><rect x="106" y="28" width="2" height="1" fill="#14101e"></rect><rect x="108" y="28" width="12" height="1" fill="#0a0810"></rect><rect x="105" y="29" width="1" height="1" fill="#0a0810"></rect><rect x="106" y="29" width="2" height="1" fill="#14101e"></rect><rect x="108" y="29" width="12" height="1" fill="#0a0810"></rect><rect x="105" y="30" width="1" height="1" fill="#0a0810"></rect><rect x="106" y="30" width="2" height="1" fill="#14101e"></rect><rect x="108" y="30" width="12" height="1" fill="#0a0810"></rect><rect x="105" y="31" width="1" height="1" fill="#0a0810"></rect><rect x="106" y="31" width="2" height="1" fill="#14101e"></rect><rect x="108" y="31" width="12" height="1" fill="#0a0810"></rect><rect x="105" y="32" width="1" height="1" fill="#0a0810"></rect><rect x="106" y="32" width="2" height="1" fill="#14101e"></rect><rect x="108" y="32" width="12" height="1" fill="#0a0810"></rect><rect x="105" y="33" width="1" height="1" fill="#0a0810"></rect><rect x="106" y="33" width="2" height="1" fill="#14101e"></rect><rect x="108" y="33" width="12" height="1" fill="#0a0810"></rect><rect x="104" y="34" width="1" height="1" fill="#0a0810"></rect><rect x="105" y="34" width="2" height="1" fill="#14101e"></rect><rect x="107" y="34" width="14" height="1" fill="#0a0810"></rect><rect x="104" y="35" width="1" height="1" fill="#0a0810"></rect><rect x="105" y="35" width="2" height="1" fill="#14101e"></rect><rect x="107" y="35" width="14" height="1" fill="#0a0810"></rect><rect x="104" y="36" width="1" height="1" fill="#0a0810"></rect><rect x="105" y="36" width="2" height="1" fill="#14101e"></rect><rect x="107" y="36" width="14" height="1" fill="#0a0810"></rect><rect x="104" y="37" width="17" height="1" fill="#0a0810"></rect><rect x="105" y="38" width="15" height="1" fill="#0a0810"></rect></svg>